<svg viewBox="0 0 1466 825" version="1.1" xmlns="http://www.w3.org/2000/svg">
<defs>
<clipPath id="c0_59"><path d="M-.2 825.3V-.2H1467V825.3Z"/></clipPath>
<style>
.g0_59{fill:#E2D9BD;}
.g1_59{fill:#C7B1F2;}
.g2_59{fill:#C00000;}
</style>
</defs>
<g clip-path="url(#c0_59)">
<image preserveAspectRatio="none" x="0" y="0" width="1467" height="825" href="img/1.png"/>
<image preserveAspectRatio="none" x="261" y="237" width="926" height="73" href="img/2.png"/>
<image preserveAspectRatio="none" x="281" y="263" width="887" height="38" href="img/3.png"/>
</g>
<path fill-rule="evenodd" d="M252.5 300.5h925.1V228.2H252.5v72.3Z" class="g0_59"/>
<g clip-path="url(#c0_59)">
<image preserveAspectRatio="none" x="272" y="254" width="887" height="38" href="img/4.png"/>
<image preserveAspectRatio="none" x="378" y="352" width="692" height="72" href="img/5.png"/>
<image preserveAspectRatio="none" x="423" y="377" width="636" height="39" href="img/6.png"/>
</g>
<path fill-rule="evenodd" d="M369 414.7h692v-72H369v72Z" class="g1_59"/>
<g clip-path="url(#c0_59)">
<image preserveAspectRatio="none" x="413" y="368" width="637" height="38" href="img/7.png"/>
<image preserveAspectRatio="none" x="378" y="458" width="692" height="72" href="img/8.png"/>
<image preserveAspectRatio="none" x="403" y="484" width="655" height="38" href="img/9.png"/>
</g>
<path fill-rule="evenodd" d="M369 521h692V449H369v72Z" class="g1_59"/>
<g clip-path="url(#c0_59)">
<image preserveAspectRatio="none" x="394" y="475" width="655" height="38" href="img/10.png"/>
<image preserveAspectRatio="none" x="378" y="566" width="692" height="73" href="img/11.png"/>
<image preserveAspectRatio="none" x="447" y="592" width="611" height="38" href="img/12.png"/>
</g>
<path fill-rule="evenodd" d="M369 629.6h692V557.5H369v72.1Z" class="g1_59"/>
<g clip-path="url(#c0_59)">
<image preserveAspectRatio="none" x="437" y="583" width="613" height="38" href="img/13.png"/>
<image preserveAspectRatio="none" x="378" y="678" width="692" height="72" href="img/14.png"/>
<image preserveAspectRatio="none" x="442" y="703" width="616" height="38" href="img/15.png"/>
</g>
<path fill-rule="evenodd" d="M369 740.7h692V668.6H369v72.1Z" class="g1_59"/>
<g clip-path="url(#c0_59)">
<image preserveAspectRatio="none" x="432" y="694" width="617" height="38" href="img/16.png"/>
<image preserveAspectRatio="none" x="378" y="349" width="692" height="73" href="img/17.png"/>
<image preserveAspectRatio="none" x="423" y="375" width="636" height="38" href="img/18.png"/>
</g>
<path fill-rule="evenodd" d="M369 412.5h692V340.4H369v72.1Z" class="g2_59"/>
<g clip-path="url(#c0_59)">
<image preserveAspectRatio="none" x="413" y="366" width="637" height="38" href="img/19.png"/>
<image preserveAspectRatio="none" x="714" y="25" width="394" height="126" href="img/20.png"/>
<image preserveAspectRatio="none" x="685" y="25" width="106" height="126" href="img/21.png"/>
<image preserveAspectRatio="none" x="337" y="25" width="425" height="126" href="img/22.png"/>
<image preserveAspectRatio="none" x="322" y="25" width="92" height="126" href="img/23.png"/>
</g>
</svg>