<svg viewBox="0 0 1466 825" version="1.1" xmlns="http://www.w3.org/2000/svg">
<defs>
<clipPath id="c0_47"><path d="M-.2 825.3V-.2H1467V825.3Z"/></clipPath>
<style>
.g0_47{fill:#E2D9BD;}
.g1_47{fill:#4472C4;}
.g2_47{fill:#CFD5EA;}
.g3_47{fill:none;stroke:#FFF;stroke-width:1.527;stroke-linejoin:round;}
.g4_47{fill:none;stroke:#FFF;stroke-width:4.583;stroke-linejoin:round;}
.g5_47{fill:#C7B1F2;}
.g6_47{fill:#C00000;}
</style>
</defs>
<g clip-path="url(#c0_47)">
<image preserveAspectRatio="none" x="0" y="0" width="1467" height="825" href="img/1.png"/>
<image preserveAspectRatio="none" x="106" y="268" width="1273" height="150" href="img/2.png"/>
<image preserveAspectRatio="none" x="122" y="297" width="1242" height="119" href="img/3.png"/>
</g>
<path fill-rule="evenodd" d="M97 409H1369.7V259H97V409Z" class="g0_47"/>
<image clip-path="url(#c0_47)" preserveAspectRatio="none" x="113" y="288" width="1242" height="118" href="img/4.png"/>
<path fill-rule="evenodd" d="M345 568.9H561V510.3H345v58.6Z" class="g1_47"/>
<path fill-rule="evenodd" d="M128.9 568.9H345V510.3H128.9v58.6Z" class="g1_47"/>
<path fill-rule="evenodd" d="M345 674.1H561V568.9H345V674.1Z" class="g2_47"/>
<path fill-rule="evenodd" d="M128.9 674.1H345V568.9H128.9V674.1Z" class="g2_47"/>
<path d="M345 509.5V674.9" class="g3_47"/>
<path d="M128.2 568.9H561.7" class="g4_47"/>
<path d="M561 509.5V674.9M128.9 509.5V674.9m-.7-164.7H561.7M128.2 674.1H561.7" class="g3_47"/>
<g clip-path="url(#c0_47)">
<image preserveAspectRatio="none" x="408" y="494" width="89" height="98" href="img/5.png"/>
<image preserveAspectRatio="none" x="193" y="494" width="88" height="98" href="img/6.png"/>
<image preserveAspectRatio="none" x="375" y="554" width="92" height="99" href="img/7.png"/>
<image preserveAspectRatio="none" x="415" y="582" width="60" height="70" href="img/8.png"/>
<image preserveAspectRatio="none" x="422" y="554" width="92" height="99" href="img/9.png"/>
<image preserveAspectRatio="none" x="462" y="582" width="60" height="70" href="img/10.png"/>
<image preserveAspectRatio="none" x="128" y="554" width="92" height="99" href="img/11.png"/>
<image preserveAspectRatio="none" x="167" y="582" width="60" height="70" href="img/12.png"/>
<image preserveAspectRatio="none" x="175" y="554" width="91" height="99" href="img/13.png"/>
<image preserveAspectRatio="none" x="214" y="582" width="60" height="70" href="img/14.png"/>
<image preserveAspectRatio="none" x="221" y="554" width="109" height="99" href="img/15.png"/>
<image preserveAspectRatio="none" x="277" y="582" width="60" height="70" href="img/16.png"/>
<image preserveAspectRatio="none" x="638" y="447" width="709" height="72" href="img/17.png"/>
<image preserveAspectRatio="none" x="680" y="466" width="626" height="48" href="img/18.png"/>
</g>
<path fill-rule="evenodd" d="M628.7 510.2h709.1v-72H628.7v72Z" class="g5_47"/>
<g clip-path="url(#c0_47)">
<image preserveAspectRatio="none" x="671" y="456" width="626" height="49" href="img/19.png"/>
<image preserveAspectRatio="none" x="637" y="539" width="710" height="72" href="img/20.png"/>
<image preserveAspectRatio="none" x="657" y="564" width="672" height="42" href="img/21.png"/>
</g>
<path fill-rule="evenodd" d="M628.5 602.1h709.3V529.8H628.5v72.3Z" class="g5_47"/>
<g clip-path="url(#c0_47)">
<image preserveAspectRatio="none" x="648" y="556" width="672" height="41" href="img/22.png"/>
<image preserveAspectRatio="none" x="638" y="638" width="709" height="72" href="img/23.png"/>
<image preserveAspectRatio="none" x="683" y="664" width="620" height="41" href="img/24.png"/>
</g>
<path fill-rule="evenodd" d="M628.7 701.1h709.1V629H628.7v72.1Z" class="g5_47"/>
<g clip-path="url(#c0_47)">
<image preserveAspectRatio="none" x="673" y="655" width="621" height="41" href="img/25.png"/>
<image preserveAspectRatio="none" x="635" y="737" width="712" height="72" href="img/26.png"/>
<image preserveAspectRatio="none" x="670" y="762" width="643" height="42" href="img/27.png"/>
</g>
<path fill-rule="evenodd" d="M626.5 800.1h711.3V728H626.5v72.1Z" class="g5_47"/>
<g clip-path="url(#c0_47)">
<image preserveAspectRatio="none" x="661" y="754" width="643" height="41" href="img/28.png"/>
<image preserveAspectRatio="none" x="638" y="636" width="709" height="72" href="img/29.png"/>
<image preserveAspectRatio="none" x="682" y="661" width="621" height="42" href="img/30.png"/>
</g>
<path fill-rule="evenodd" d="M628.7 698.9h709.1V626.8H628.7v72.1Z" class="g6_47"/>
<g clip-path="url(#c0_47)">
<image preserveAspectRatio="none" x="673" y="653" width="621" height="41" href="img/31.png"/>
<image preserveAspectRatio="none" x="714" y="25" width="394" height="126" href="img/32.png"/>
<image preserveAspectRatio="none" x="685" y="25" width="106" height="126" href="img/33.png"/>
<image preserveAspectRatio="none" x="337" y="25" width="425" height="126" href="img/34.png"/>
<image preserveAspectRatio="none" x="322" y="25" width="92" height="126" href="img/35.png"/>
<image preserveAspectRatio="none" x="508" y="177" width="411" height="82" href="img/36.png"/>
<image preserveAspectRatio="none" x="542" y="200" width="344" height="50" href="img/37.png"/>
</g>
<path fill-rule="evenodd" d="M499.2 250.2H909.7V168.1H499.2v82.1Z" class="g0_47"/>
<image clip-path="url(#c0_47)" preserveAspectRatio="none" x="533" y="191" width="344" height="50" href="img/38.png"/>
</svg>