<svg viewBox="0 0 1466 825" version="1.1" xmlns="http://www.w3.org/2000/svg">
<defs>
<clipPath id="c0_8"><path d="M-.2 825.3V-.2H1467V825.3Z"/></clipPath>
<style>
.g0_8{fill:#E2D9BD;}
.g1_8{fill:#C7B1F2;}
.g2_8{fill:#C00000;}
</style>
</defs>
<g clip-path="url(#c0_8)">
<image preserveAspectRatio="none" x="0" y="0" width="1467" height="825" href="img/1.png"/>
<image preserveAspectRatio="none" x="134" y="225" width="1217" height="72" href="img/2.png"/>
<image preserveAspectRatio="none" x="161" y="248" width="1163" height="48" href="img/3.png"/>
</g>
<path fill-rule="evenodd" d="M125.2 288.2H1341.5v-72H125.2v72Z" class="g0_8"/>
<g clip-path="url(#c0_8)">
<image preserveAspectRatio="none" x="152" y="239" width="1163" height="47" href="img/4.png"/>
<image preserveAspectRatio="none" x="167" y="385" width="1150" height="73" href="img/5.png"/>
<image preserveAspectRatio="none" x="209" y="404" width="1097" height="47" href="img/6.png"/>
</g>
<path fill-rule="evenodd" d="M158.4 448.6H1308.3V376.4H158.4v72.2Z" class="g1_8"/>
<g clip-path="url(#c0_8)">
<image preserveAspectRatio="none" x="199" y="395" width="1098" height="47" href="img/7.png"/>
<image preserveAspectRatio="none" x="167" y="508" width="1150" height="73" href="img/8.png"/>
<image preserveAspectRatio="none" x="187" y="527" width="1119" height="47" href="img/9.png"/>
</g>
<path fill-rule="evenodd" d="M158.4 571.4H1308.3v-72H158.4v72Z" class="g1_8"/>
<g clip-path="url(#c0_8)">
<image preserveAspectRatio="none" x="177" y="518" width="1120" height="47" href="img/10.png"/>
<image preserveAspectRatio="none" x="167" y="631" width="1150" height="73" href="img/11.png"/>
<image preserveAspectRatio="none" x="281" y="650" width="1025" height="45" href="img/12.png"/>
</g>
<path fill-rule="evenodd" d="M158.4 694.5H1308.3V622.2H158.4v72.3Z" class="g1_8"/>
<g clip-path="url(#c0_8)">
<image preserveAspectRatio="none" x="272" y="641" width="1025" height="45" href="img/13.png"/>
<image preserveAspectRatio="none" x="167" y="385" width="1150" height="73" href="img/14.png"/>
<image preserveAspectRatio="none" x="194" y="404" width="1097" height="47" href="img/15.png"/>
</g>
<path fill-rule="evenodd" d="M158.4 448.6H1308.3V376.4H158.4v72.2Z" class="g2_8"/>
<g clip-path="url(#c0_8)">
<image preserveAspectRatio="none" x="185" y="395" width="1098" height="47" href="img/16.png"/>
<image preserveAspectRatio="none" x="762" y="33" width="346" height="127" href="img/17.png"/>
<image preserveAspectRatio="none" x="733" y="33" width="105" height="127" href="img/18.png"/>
<image preserveAspectRatio="none" x="374" y="33" width="436" height="127" href="img/19.png"/>
<image preserveAspectRatio="none" x="358" y="33" width="92" height="127" href="img/20.png"/>
</g>
</svg>