<svg viewBox="0 0 1466 825" version="1.1" xmlns="http://www.w3.org/2000/svg">
<defs>
<clipPath id="c0_15"><path d="M-.2 825.3V-.2H1467V825.3Z"/></clipPath>
<style>
.g0_15{fill:#E2D9BD;}
.g1_15{fill:#CCF;}
.g2_15{fill:#C7B1F2;}
.g3_15{fill:#C00000;}
</style>
</defs>
<g clip-path="url(#c0_15)">
<image preserveAspectRatio="none" x="0" y="0" width="1467" height="825" href="img/1.png"/>
<image preserveAspectRatio="none" x="708" y="203" width="410" height="82" href="img/2.png"/>
<image preserveAspectRatio="none" x="742" y="226" width="343" height="50" href="img/3.png"/>
</g>
<path fill-rule="evenodd" d="M698.9 276.1h410.5V193.8H698.9v82.3Z" class="g0_15"/>
<g clip-path="url(#c0_15)">
<image preserveAspectRatio="none" x="732" y="217" width="345" height="50" href="img/4.png"/>
<image preserveAspectRatio="none" x="352" y="314" width="1071" height="478" href="img/5.png"/>
<image preserveAspectRatio="none" x="401" y="343" width="974" height="436" href="img/6.png"/>
</g>
<path fill-rule="evenodd" d="M343.4 782.7H1413.9V305.1H343.4V782.7Z" class="g0_15"/>
<g clip-path="url(#c0_15)">
<image preserveAspectRatio="none" x="392" y="335" width="974" height="435" href="img/7.png"/>
<image preserveAspectRatio="none" x="89" y="329" width="183" height="83" href="img/8.png"/>
<image preserveAspectRatio="none" x="127" y="348" width="111" height="59" href="img/9.png"/>
</g>
<path fill-rule="evenodd" d="M80.3 402.8H263.1V320.5H80.3v82.3Z" class="g1_15"/>
<g clip-path="url(#c0_15)">
<image preserveAspectRatio="none" x="118" y="339" width="111" height="59" href="img/10.png"/>
<image preserveAspectRatio="none" x="89" y="450" width="183" height="82" href="img/11.png"/>
<image preserveAspectRatio="none" x="110" y="479" width="141" height="50" href="img/12.png"/>
</g>
<path fill-rule="evenodd" d="M80.3 523.4H263.1V441.3H80.3v82.1Z" class="g2_15"/>
<g clip-path="url(#c0_15)">
<image preserveAspectRatio="none" x="100" y="470" width="142" height="50" href="img/13.png"/>
<image preserveAspectRatio="none" x="89" y="570" width="183" height="82" href="img/14.png"/>
<image preserveAspectRatio="none" x="114" y="600" width="133" height="50" href="img/15.png"/>
</g>
<path fill-rule="evenodd" d="M80.3 643.3H263.1V561.2H80.3v82.1Z" class="g2_15"/>
<g clip-path="url(#c0_15)">
<image preserveAspectRatio="none" x="105" y="590" width="133" height="51" href="img/16.png"/>
<image preserveAspectRatio="none" x="89" y="690" width="183" height="82" href="img/17.png"/>
<image preserveAspectRatio="none" x="121" y="719" width="121" height="49" href="img/18.png"/>
</g>
<path fill-rule="evenodd" d="M80.3 763.2H263.1V680.9H80.3v82.3Z" class="g2_15"/>
<g clip-path="url(#c0_15)">
<image preserveAspectRatio="none" x="111" y="710" width="122" height="49" href="img/19.png"/>
<image preserveAspectRatio="none" x="89" y="330" width="183" height="83" href="img/20.png"/>
<image preserveAspectRatio="none" x="127" y="349" width="111" height="59" href="img/21.png"/>
</g>
<path fill-rule="evenodd" d="M80.3 403.7H263.1V321.4H80.3v82.3Z" class="g3_15"/>
<g clip-path="url(#c0_15)">
<image preserveAspectRatio="none" x="118" y="340" width="111" height="59" href="img/22.png"/>
<image preserveAspectRatio="none" x="781" y="26" width="309" height="127" href="img/23.png"/>
<image preserveAspectRatio="none" x="752" y="26" width="106" height="127" href="img/24.png"/>
<image preserveAspectRatio="none" x="395" y="26" width="434" height="127" href="img/25.png"/>
</g>
</svg>