<svg viewBox="0 0 1466 825" version="1.1" xmlns="http://www.w3.org/2000/svg">
<defs>
<clipPath id="c0_21"><path d="M-.2 825.3V-.2H1467V825.3Z"/></clipPath>
<clipPath id="c1_21"><path d="M762.9 663.6V292.1h671.3V663.6Z"/></clipPath>
<style>
.g0_21{fill:#E2D9BD;}
.g1_21{fill:#C7B1F2;}
.g2_21{fill:#4472C4;}
</style>
</defs>
<g clip-path="url(#c0_21)">
<image preserveAspectRatio="none" x="0" y="0" width="1467" height="825" href="img/1.png"/>
<image preserveAspectRatio="none" x="510" y="202" width="383" height="72" href="img/2.png"/>
<image preserveAspectRatio="none" x="561" y="227" width="281" height="41" href="img/3.png"/>
</g>
<path fill-rule="evenodd" d="M501 265.1H883.9V192.9H501v72.2Z" class="g0_21"/>
<image clip-path="url(#c0_21)" preserveAspectRatio="none" x="552" y="218" width="281" height="41" href="img/4.png"/>
<image clip-path="url(#c1_21)" preserveAspectRatio="none" x="763" y="292" width="671" height="371" href="img/5.jpg"/>
<g clip-path="url(#c0_21)">
<image preserveAspectRatio="none" x="85" y="352" width="612" height="72" href="img/6.png"/>
<image preserveAspectRatio="none" x="201" y="372" width="380" height="42" href="img/7.png"/>
</g>
<path fill-rule="evenodd" d="M75.7 415.1h612V342.8H75.7v72.3Z" class="g1_21"/>
<g clip-path="url(#c0_21)">
<image preserveAspectRatio="none" x="191" y="362" width="381" height="44" href="img/8.png"/>
<image preserveAspectRatio="none" x="85" y="455" width="612" height="69" href="img/9.png"/>
<image preserveAspectRatio="none" x="129" y="482" width="527" height="43" href="img/10.png"/>
</g>
<path fill-rule="evenodd" d="M75.7 515.4h612V445.9H75.7v69.5Z" class="g1_21"/>
<image clip-path="url(#c0_21)" preserveAspectRatio="none" x="120" y="473" width="527" height="43" href="img/11.png"/>
<path d="M237.9 486.2l107.6 1.4l-.1 4.5l-107.6-1.3Zm95.1-6.5l17 10.2l-17.3 9.8c-1.1 .6-2.5 .2-3.1-.9c-.6-1.1-.3-2.5 .9-3.1l13.8-7.8v3.9l-13.7-8.2c-1.1-.6-1.4-2-.8-3.1c.7-1.1 2.1-1.5 3.2-.8Z" class="g2_21"/>
<g clip-path="url(#c0_21)">
<image preserveAspectRatio="none" x="85" y="563" width="612" height="73" href="img/12.png"/>
<image preserveAspectRatio="none" x="196" y="588" width="390" height="38" href="img/13.png"/>
</g>
<path fill-rule="evenodd" d="M75.7 626.4h612V554.2H75.7v72.2Z" class="g1_21"/>
<g clip-path="url(#c0_21)">
<image preserveAspectRatio="none" x="186" y="579" width="391" height="38" href="img/14.png"/>
<image preserveAspectRatio="none" x="85" y="672" width="758" height="63" href="img/15.png"/>
<image preserveAspectRatio="none" x="113" y="683" width="716" height="52" href="img/16.png"/>
</g>
<path fill-rule="evenodd" d="M75.7 726.2H833.8V663.3H75.7v62.9Z" class="g1_21"/>
<image clip-path="url(#c0_21)" preserveAspectRatio="none" x="103" y="673" width="717" height="52" href="img/17.png"/>
<path d="M526.1 692.5l107.6 1.3l-.1 4.6L526 697Zm95.1-6.6l17 10.3l-17.3 9.7c-1.1 .7-2.5 .3-3.1-.8c-.6-1.1-.3-2.5 .9-3.2l13.8-7.8v4l-13.7-8.2c-1.1-.7-1.4-2.1-.8-3.2c.7-1.1 2.1-1.4 3.2-.8Z" class="g2_21"/>
<g clip-path="url(#c0_21)">
<image preserveAspectRatio="none" x="762" y="33" width="346" height="127" href="img/18.png"/>
<image preserveAspectRatio="none" x="733" y="33" width="105" height="127" href="img/19.png"/>
<image preserveAspectRatio="none" x="374" y="33" width="436" height="127" href="img/20.png"/>
<image preserveAspectRatio="none" x="358" y="33" width="92" height="127" href="img/21.png"/>
</g>
</svg>