<svg viewBox="0 0 1466 825" version="1.1" xmlns="http://www.w3.org/2000/svg">
<defs>
<clipPath id="c0_16"><path d="M-.2 825.3V-.2H1467V825.3Z"/></clipPath>
<clipPath id="c1_16"><path d="M500.5 751.6v-452H969.1v452Z"/></clipPath>
<clipPath id="c2_16"><path d="M40.9 650.8V299.6H463.6V650.8Z"/></clipPath>
<style>
.g0_16{fill:#E2D9BD;}
.g1_16{fill:#C7B1F2;}
.g2_16{fill:#C00000;}
</style>
</defs>
<g clip-path="url(#c0_16)">
<image preserveAspectRatio="none" x="0" y="0" width="1467" height="825" href="img/1.png"/>
<image preserveAspectRatio="none" x="548" y="189" width="380" height="72" href="img/2.png"/>
<image preserveAspectRatio="none" x="582" y="209" width="313" height="50" href="img/3.png"/>
</g>
<path fill-rule="evenodd" d="M538.8 252.1H919.4V179.9H538.8v72.2Z" class="g0_16"/>
<g clip-path="url(#c0_16)">
<image preserveAspectRatio="none" x="572" y="199" width="315" height="50" href="img/4.png"/>
<image preserveAspectRatio="none" x="1099" y="251" width="334" height="72" href="img/5.png"/>
<image preserveAspectRatio="none" x="1130" y="277" width="270" height="38" href="img/6.png"/>
</g>
<path fill-rule="evenodd" d="M1089.7 313.9H1424V241.8H1089.7v72.1Z" class="g0_16"/>
<image clip-path="url(#c0_16)" preserveAspectRatio="none" x="1120" y="268" width="271" height="37" href="img/7.png"/>
<image clip-path="url(#c1_16)" preserveAspectRatio="none" x="501" y="300" width="468" height="451" href="img/8.jpg"/>
<g clip-path="url(#c0_16)">
<image preserveAspectRatio="none" x="1002" y="355" width="443" height="405" href="img/9.png"/>
<image preserveAspectRatio="none" x="1019" y="380" width="411" height="375" href="img/10.png"/>
</g>
<path fill-rule="evenodd" d="M993.5 751.3h442.6V346H993.5V751.3Z" class="g0_16"/>
<image clip-path="url(#c0_16)" preserveAspectRatio="none" x="1010" y="371" width="411" height="375" href="img/11.png"/>
<image clip-path="url(#c2_16)" preserveAspectRatio="none" x="41" y="300" width="422" height="350" href="img/12.png"/>
<g clip-path="url(#c0_16)">
<image preserveAspectRatio="none" x="390" y="678" width="83" height="72" href="img/13.png"/>
<image preserveAspectRatio="none" x="428" y="703" width="8" height="33" href="img/14.png"/>
</g>
<path fill-rule="evenodd" d="M381.3 741h82.2V668.8H381.3V741Z" class="g1_16"/>
<g clip-path="url(#c0_16)">
<image preserveAspectRatio="none" x="419" y="694" width="8" height="32" href="img/15.png"/>
<image preserveAspectRatio="none" x="277" y="678" width="82" height="72" href="img/16.png"/>
<image preserveAspectRatio="none" x="304" y="712" width="28" height="28" href="img/17.png"/>
</g>
<path fill-rule="evenodd" d="M267.9 741h82.3V668.8H267.9V741Z" class="g1_16"/>
<g clip-path="url(#c0_16)">
<image preserveAspectRatio="none" x="295" y="703" width="28" height="28" href="img/18.png"/>
<image preserveAspectRatio="none" x="164" y="678" width="82" height="72" href="img/19.png"/>
<image preserveAspectRatio="none" x="196" y="712" width="19" height="29" href="img/20.png"/>
</g>
<path fill-rule="evenodd" d="M154.6 741h82.3V668.8H154.6V741Z" class="g1_16"/>
<g clip-path="url(#c0_16)">
<image preserveAspectRatio="none" x="186" y="703" width="20" height="29" href="img/21.png"/>
<image preserveAspectRatio="none" x="50" y="678" width="82" height="72" href="img/22.png"/>
<image preserveAspectRatio="none" x="84" y="710" width="15" height="23" href="img/23.png"/>
</g>
<path fill-rule="evenodd" d="M41.3 741h82.1V668.8H41.3V741Z" class="g1_16"/>
<g clip-path="url(#c0_16)">
<image preserveAspectRatio="none" x="74" y="701" width="16" height="23" href="img/24.png"/>
<image preserveAspectRatio="none" x="50" y="678" width="82" height="72" href="img/25.png"/>
<image preserveAspectRatio="none" x="84" y="710" width="15" height="23" href="img/26.png"/>
</g>
<path fill-rule="evenodd" d="M41.3 741h82.1V668.8H41.3V741Z" class="g2_16"/>
<g clip-path="url(#c0_16)">
<image preserveAspectRatio="none" x="74" y="701" width="16" height="23" href="img/27.png"/>
<image preserveAspectRatio="none" x="762" y="33" width="346" height="127" href="img/28.png"/>
<image preserveAspectRatio="none" x="733" y="33" width="105" height="127" href="img/29.png"/>
<image preserveAspectRatio="none" x="374" y="33" width="436" height="127" href="img/30.png"/>
<image preserveAspectRatio="none" x="358" y="33" width="92" height="127" href="img/31.png"/>
</g>
</svg>