<svg viewBox="0 0 1466 825" version="1.1" xmlns="http://www.w3.org/2000/svg">
<defs>
<clipPath id="c0_21"><path d="M-.2 825.3V-.2H1467V825.3Z"/></clipPath>
<style>
.g0_21{fill:#E2D9BD;}
.g1_21{fill:#C7B1F2;}
.g2_21{fill:#C00000;}
</style>
</defs>
<g clip-path="url(#c0_21)">
<image preserveAspectRatio="none" x="0" y="0" width="1467" height="825" href="img/1.png"/>
<image preserveAspectRatio="none" x="103" y="224" width="1304" height="139" href="img/2.png"/>
<image preserveAspectRatio="none" x="126" y="250" width="1255" height="111" href="img/3.png"/>
</g>
<path fill-rule="evenodd" d="M93.7 354.2H1398.1V215.4H93.7V354.2Z" class="g0_21"/>
<g clip-path="url(#c0_21)">
<image preserveAspectRatio="none" x="117" y="241" width="1255" height="111" href="img/4.png"/>
<image preserveAspectRatio="none" x="785" y="462" width="495" height="82" href="img/5.png"/>
<image preserveAspectRatio="none" x="845" y="491" width="378" height="45" href="img/6.png"/>
</g>
<path fill-rule="evenodd" d="M776.2 535.2h494.5V452.8H776.2v82.4Z" class="g1_21"/>
<g clip-path="url(#c0_21)">
<image preserveAspectRatio="none" x="835" y="483" width="379" height="45" href="img/7.png"/>
<image preserveAspectRatio="none" x="174" y="463" width="494" height="82" href="img/8.png"/>
<image preserveAspectRatio="none" x="222" y="494" width="400" height="44" href="img/9.png"/>
</g>
<path fill-rule="evenodd" d="M164.6 536.1H659.3V453.8H164.6v82.3Z" class="g1_21"/>
<g clip-path="url(#c0_21)">
<image preserveAspectRatio="none" x="212" y="485" width="401" height="44" href="img/10.png"/>
<image preserveAspectRatio="none" x="785" y="606" width="495" height="82" href="img/11.png"/>
<image preserveAspectRatio="none" x="816" y="637" width="435" height="44" href="img/12.png"/>
</g>
<path fill-rule="evenodd" d="M776.2 679.1h494.5V596.8H776.2v82.3Z" class="g1_21"/>
<g clip-path="url(#c0_21)">
<image preserveAspectRatio="none" x="807" y="628" width="435" height="44" href="img/13.png"/>
<image preserveAspectRatio="none" x="174" y="606" width="494" height="82" href="img/14.png"/>
<image preserveAspectRatio="none" x="193" y="637" width="458" height="44" href="img/15.png"/>
</g>
<path fill-rule="evenodd" d="M164.6 679.1H659.3V596.8H164.6v82.3Z" class="g1_21"/>
<g clip-path="url(#c0_21)">
<image preserveAspectRatio="none" x="183" y="628" width="459" height="44" href="img/16.png"/>
<image preserveAspectRatio="none" x="785" y="463" width="495" height="82" href="img/17.png"/>
<image preserveAspectRatio="none" x="845" y="492" width="378" height="45" href="img/18.png"/>
</g>
<path fill-rule="evenodd" d="M776.2 536.1h494.5V453.8H776.2v82.3Z" class="g2_21"/>
<image clip-path="url(#c0_21)" preserveAspectRatio="none" x="835" y="483" width="379" height="45" href="img/19.png"/>
</svg>