<svg viewBox="0 0 1466 825" version="1.1" xmlns="http://www.w3.org/2000/svg">
<defs>
<clipPath id="c0_44"><path d="M-.2 825.3V-.2H1467V825.3Z"/></clipPath>
<style>
.g0_44{fill:#FCE9D2;}
.g1_44{fill:#75C5E8;}
.g2_44{fill:#C7B1F2;}
</style>
</defs>
<g clip-path="url(#c0_44)">
<image preserveAspectRatio="none" x="0" y="0" width="1467" height="825" href="img/1.png"/>
<image preserveAspectRatio="none" x="316" y="238" width="798" height="72" href="img/2.png"/>
<image preserveAspectRatio="none" x="381" y="264" width="669" height="38" href="img/3.png"/>
</g>
<path fill-rule="evenodd" d="M306.9 301h798.2V229H306.9v72Z" class="g0_44"/>
<g clip-path="url(#c0_44)">
<image preserveAspectRatio="none" x="371" y="255" width="670" height="38" href="img/4.png"/>
<image preserveAspectRatio="none" x="209" y="365" width="246" height="73" href="img/5.png"/>
<image preserveAspectRatio="none" x="235" y="393" width="195" height="37" href="img/6.png"/>
</g>
<path fill-rule="evenodd" d="M200.4 428.5H446.1V356.4H200.4v72.1Z" class="g1_44"/>
<g clip-path="url(#c0_44)">
<image preserveAspectRatio="none" x="226" y="384" width="195" height="37" href="img/7.png"/>
<image preserveAspectRatio="none" x="541" y="365" width="269" height="73" href="img/8.png"/>
<image preserveAspectRatio="none" x="562" y="393" width="228" height="29" href="img/9.png"/>
</g>
<path fill-rule="evenodd" d="M532.4 428.5h268V356.4h-268v72.1Z" class="g2_44"/>
<g clip-path="url(#c0_44)">
<image preserveAspectRatio="none" x="553" y="384" width="229" height="29" href="img/10.png"/>
<image preserveAspectRatio="none" x="896" y="365" width="155" height="73" href="img/11.png"/>
<image preserveAspectRatio="none" x="913" y="393" width="123" height="29" href="img/12.png"/>
</g>
<path fill-rule="evenodd" d="M886.8 428.5h154.7V356.4H886.8v72.1Z" class="g2_44"/>
<g clip-path="url(#c0_44)">
<image preserveAspectRatio="none" x="903" y="384" width="124" height="29" href="img/13.png"/>
<image preserveAspectRatio="none" x="1137" y="365" width="155" height="73" href="img/14.png"/>
<image preserveAspectRatio="none" x="1149" y="391" width="116" height="38" href="img/15.png"/>
</g>
<path fill-rule="evenodd" d="M1127.9 428.5h154.7V356.4H1127.9v72.1Z" class="g1_44"/>
<g clip-path="url(#c0_44)">
<image preserveAspectRatio="none" x="1140" y="383" width="116" height="37" href="img/16.png"/>
<image preserveAspectRatio="none" x="303" y="493" width="886" height="72" href="img/17.png"/>
<image preserveAspectRatio="none" x="328" y="519" width="837" height="38" href="img/18.png"/>
</g>
<path fill-rule="evenodd" d="M294.3 555.9h885.3V483.8H294.3v72.1Z" class="g0_44"/>
<g clip-path="url(#c0_44)">
<image preserveAspectRatio="none" x="319" y="510" width="837" height="38" href="img/19.png"/>
<image preserveAspectRatio="none" x="167" y="632" width="328" height="72" href="img/20.png"/>
<image preserveAspectRatio="none" x="196" y="659" width="270" height="37" href="img/21.png"/>
</g>
<path fill-rule="evenodd" d="M157.7 694.7H485.5V622.6H157.7v72.1Z" class="g1_44"/>
<g clip-path="url(#c0_44)">
<image preserveAspectRatio="none" x="186" y="650" width="271" height="38" href="img/22.png"/>
<image preserveAspectRatio="none" x="572" y="632" width="328" height="72" href="img/23.png"/>
<image preserveAspectRatio="none" x="592" y="659" width="290" height="29" href="img/24.png"/>
</g>
<path fill-rule="evenodd" d="M562.8 694.7H890.6V622.6H562.8v72.1Z" class="g2_44"/>
<g clip-path="url(#c0_44)">
<image preserveAspectRatio="none" x="582" y="650" width="291" height="29" href="img/25.png"/>
<image preserveAspectRatio="none" x="977" y="632" width="166" height="72" href="img/26.png"/>
<image preserveAspectRatio="none" x="1000" y="659" width="122" height="28" href="img/27.png"/>
</g>
<path fill-rule="evenodd" d="M968.2 694.7h166.1V622.6H968.2v72.1Z" class="g2_44"/>
<g clip-path="url(#c0_44)">
<image preserveAspectRatio="none" x="991" y="650" width="122" height="29" href="img/28.png"/>
<image preserveAspectRatio="none" x="1221" y="632" width="122" height="72" href="img/29.png"/>
<image preserveAspectRatio="none" x="1246" y="659" width="72" height="29" href="img/30.png"/>
</g>
<path fill-rule="evenodd" d="M1211.8 694.7h122.3V622.6H1211.8v72.1Z" class="g1_44"/>
<g clip-path="url(#c0_44)">
<image preserveAspectRatio="none" x="1237" y="650" width="72" height="29" href="img/31.png"/>
<image preserveAspectRatio="none" x="714" y="25" width="394" height="126" href="img/32.png"/>
<image preserveAspectRatio="none" x="685" y="25" width="106" height="126" href="img/33.png"/>
<image preserveAspectRatio="none" x="337" y="25" width="425" height="126" href="img/34.png"/>
<image preserveAspectRatio="none" x="322" y="25" width="92" height="126" href="img/35.png"/>
</g>
</svg>