<svg viewBox="0 0 1466 825" version="1.1" xmlns="http://www.w3.org/2000/svg">
<defs>
<clipPath id="c0_24"><path d="M-.2 825.3V-.2H1467V825.3Z"/></clipPath>
<style>
.g0_24{fill:#E2D9BD;}
.g1_24{fill:#C7B1F2;}
.g2_24{fill:#C00000;}
.g3_24{fill:#FCE9D2;}
.g4_24{fill:#F00;}
</style>
</defs>
<g clip-path="url(#c0_24)">
<image preserveAspectRatio="none" x="0" y="0" width="1467" height="825" href="img/1.png"/>
<image preserveAspectRatio="none" x="53" y="285" width="1379" height="139" href="img/2.png"/>
<image preserveAspectRatio="none" x="80" y="306" width="1326" height="116" href="img/3.png"/>
</g>
<path fill-rule="evenodd" d="M43.8 414.9H1422.9V276.3H43.8V414.9Z" class="g0_24"/>
<g clip-path="url(#c0_24)">
<image preserveAspectRatio="none" x="71" y="296" width="1326" height="116" href="img/4.png"/>
<image preserveAspectRatio="none" x="575" y="440" width="857" height="73" href="img/5.png"/>
<image preserveAspectRatio="none" x="670" y="459" width="751" height="45" href="img/6.png"/>
</g>
<path fill-rule="evenodd" d="M566.1 503.4h856.8v-72H566.1v72Z" class="g1_24"/>
<g clip-path="url(#c0_24)">
<image preserveAspectRatio="none" x="660" y="450" width="752" height="45" href="img/7.png"/>
<image preserveAspectRatio="none" x="575" y="539" width="857" height="72" href="img/8.png"/>
<image preserveAspectRatio="none" x="657" y="564" width="763" height="39" href="img/9.png"/>
</g>
<path fill-rule="evenodd" d="M566.1 602.1h856.8V530H566.1v72.1Z" class="g1_24"/>
<g clip-path="url(#c0_24)">
<image preserveAspectRatio="none" x="648" y="555" width="763" height="39" href="img/10.png"/>
<image preserveAspectRatio="none" x="575" y="637" width="857" height="73" href="img/11.png"/>
<image preserveAspectRatio="none" x="647" y="663" width="773" height="39" href="img/12.png"/>
</g>
<path fill-rule="evenodd" d="M566.1 700.7h856.8V628.5H566.1v72.2Z" class="g1_24"/>
<g clip-path="url(#c0_24)">
<image preserveAspectRatio="none" x="638" y="653" width="773" height="39" href="img/13.png"/>
<image preserveAspectRatio="none" x="575" y="736" width="857" height="72" href="img/14.png"/>
<image preserveAspectRatio="none" x="589" y="761" width="831" height="39" href="img/15.png"/>
</g>
<path fill-rule="evenodd" d="M566.1 799.2h856.8V727.1H566.1v72.1Z" class="g1_24"/>
<g clip-path="url(#c0_24)">
<image preserveAspectRatio="none" x="579" y="752" width="832" height="39" href="img/16.png"/>
<image preserveAspectRatio="none" x="575" y="539" width="857" height="72" href="img/17.png"/>
<image preserveAspectRatio="none" x="622" y="564" width="763" height="39" href="img/18.png"/>
</g>
<path fill-rule="evenodd" d="M566.1 602.1h856.8V530H566.1v72.1Z" class="g2_24"/>
<image clip-path="url(#c0_24)" preserveAspectRatio="none" x="613" y="555" width="763" height="39" href="img/19.png"/>
<path fill-rule="evenodd" d="M25.1 602.1h513V539.2H25.1v62.9Z" class="g3_24"/>
<path d="M224.9 565.2H319v4.6H224.9Zm81.5-7.7l17.2 10l-17.2 10c-1 .6-2.4 .3-3.1-.8c-.6-1.1-.3-2.5 .8-3.2l13.8-8v4l-13.8-8c-1.1-.7-1.4-2.1-.8-3.2c.7-1.1 2.1-1.4 3.1-.8Z" class="g4_24"/>
<g clip-path="url(#c0_24)">
<image preserveAspectRatio="none" x="762" y="33" width="346" height="127" href="img/20.png"/>
<image preserveAspectRatio="none" x="733" y="33" width="105" height="127" href="img/21.png"/>
<image preserveAspectRatio="none" x="374" y="33" width="436" height="127" href="img/22.png"/>
<image preserveAspectRatio="none" x="358" y="33" width="92" height="127" href="img/23.png"/>
<image preserveAspectRatio="none" x="515" y="186" width="411" height="83" href="img/24.png"/>
<image preserveAspectRatio="none" x="549" y="210" width="344" height="50" href="img/25.png"/>
</g>
<path fill-rule="evenodd" d="M506.4 259.8H916.7V177.5H506.4v82.3Z" class="g0_24"/>
<image clip-path="url(#c0_24)" preserveAspectRatio="none" x="540" y="200" width="344" height="51" href="img/26.png"/>
</svg>