<svg viewBox="0 0 1466 825" version="1.1" xmlns="http://www.w3.org/2000/svg">
<defs>
<clipPath id="c0_51"><path d="M-.2 825.3V-.2H1467V825.3Z"/></clipPath>
<style>
.g0_51{fill:#E2D9BD;}
.g1_51{fill:#C7B1F2;}
.g2_51{fill:#C00000;}
</style>
</defs>
<g clip-path="url(#c0_51)">
<image preserveAspectRatio="none" x="0" y="0" width="1467" height="825" href="img/1.png"/>
<image preserveAspectRatio="none" x="447" y="303" width="547" height="72" href="img/2.png"/>
<image preserveAspectRatio="none" x="493" y="321" width="452" height="45" href="img/3.png"/>
</g>
<path fill-rule="evenodd" d="M437.8 365.7H985.2v-72H437.8v72Z" class="g0_51"/>
<g clip-path="url(#c0_51)">
<image preserveAspectRatio="none" x="484" y="312" width="452" height="45" href="img/4.png"/>
<image preserveAspectRatio="none" x="807" y="436" width="548" height="72" href="img/5.png"/>
<image preserveAspectRatio="none" x="832" y="455" width="499" height="52" href="img/6.png"/>
</g>
<path fill-rule="evenodd" d="M798.2 499.2h547.3v-72H798.2v72Z" class="g1_51"/>
<g clip-path="url(#c0_51)">
<image preserveAspectRatio="none" x="822" y="445" width="500" height="52" href="img/7.png"/>
<image preserveAspectRatio="none" x="129" y="436" width="547" height="72" href="img/8.png"/>
<image preserveAspectRatio="none" x="142" y="461" width="521" height="46" href="img/9.png"/>
</g>
<path fill-rule="evenodd" d="M119.5 499.2H667v-72H119.5v72Z" class="g1_51"/>
<g clip-path="url(#c0_51)">
<image preserveAspectRatio="none" x="133" y="452" width="521" height="45" href="img/10.png"/>
<image preserveAspectRatio="none" x="807" y="568" width="548" height="72" href="img/11.png"/>
<image preserveAspectRatio="none" x="833" y="593" width="496" height="45" href="img/12.png"/>
</g>
<path fill-rule="evenodd" d="M798.2 631h547.3V559H798.2v72Z" class="g1_51"/>
<g clip-path="url(#c0_51)">
<image preserveAspectRatio="none" x="824" y="584" width="496" height="45" href="img/13.png"/>
<image preserveAspectRatio="none" x="129" y="568" width="547" height="72" href="img/14.png"/>
<image preserveAspectRatio="none" x="157" y="593" width="491" height="45" href="img/15.png"/>
</g>
<path fill-rule="evenodd" d="M119.5 631H667V559H119.5v72Z" class="g1_51"/>
<g clip-path="url(#c0_51)">
<image preserveAspectRatio="none" x="148" y="584" width="491" height="45" href="img/16.png"/>
<image preserveAspectRatio="none" x="130" y="439" width="548" height="72" href="img/17.png"/>
<image preserveAspectRatio="none" x="143" y="464" width="522" height="45" href="img/18.png"/>
</g>
<path fill-rule="evenodd" d="M121.2 502H668.4V429.9H121.2V502Z" class="g2_51"/>
<g clip-path="url(#c0_51)">
<image preserveAspectRatio="none" x="134" y="455" width="522" height="45" href="img/19.png"/>
<image preserveAspectRatio="none" x="515" y="186" width="411" height="83" href="img/20.png"/>
<image preserveAspectRatio="none" x="549" y="210" width="344" height="50" href="img/21.png"/>
</g>
<path fill-rule="evenodd" d="M506.4 259.8H916.7V177.5H506.4v82.3Z" class="g0_51"/>
<g clip-path="url(#c0_51)">
<image preserveAspectRatio="none" x="540" y="200" width="344" height="51" href="img/22.png"/>
<image preserveAspectRatio="none" x="714" y="25" width="394" height="126" href="img/23.png"/>
<image preserveAspectRatio="none" x="685" y="25" width="106" height="126" href="img/24.png"/>
<image preserveAspectRatio="none" x="337" y="25" width="425" height="126" href="img/25.png"/>
<image preserveAspectRatio="none" x="322" y="25" width="92" height="126" href="img/26.png"/>
</g>
</svg>