<svg viewBox="0 0 1466 825" version="1.1" xmlns="http://www.w3.org/2000/svg">
<defs>
<clipPath id="c0_9"><path d="M-.2 825.3V-.2H1467V825.3Z"/></clipPath>
<style>
.g0_9{fill:#E2D9BD;}
.g1_9{fill:#CCF;}
.g2_9{fill:#C00000;}
</style>
</defs>
<g clip-path="url(#c0_9)">
<image preserveAspectRatio="none" x="0" y="0" width="1467" height="825" href="img/1.png"/>
<image preserveAspectRatio="none" x="40" y="265" width="1409" height="72" href="img/2.png"/>
<image preserveAspectRatio="none" x="71" y="291" width="1347" height="45" href="img/3.png"/>
</g>
<path fill-rule="evenodd" d="M31 328.4H1440.1V256.3H31v72.1Z" class="g0_9"/>
<g clip-path="url(#c0_9)">
<image preserveAspectRatio="none" x="61" y="282" width="1348" height="45" href="img/4.png"/>
<image preserveAspectRatio="none" x="1174" y="448" width="250" height="82" href="img/5.png"/>
<image preserveAspectRatio="none" x="1212" y="467" width="177" height="62" href="img/6.png"/>
</g>
<path fill-rule="evenodd" d="M1165.1 521.2H1415V438.9H1165.1v82.3Z" class="g1_9"/>
<g clip-path="url(#c0_9)">
<image preserveAspectRatio="none" x="1202" y="457" width="178" height="63" href="img/7.png"/>
<image preserveAspectRatio="none" x="824" y="451" width="250" height="83" href="img/8.png"/>
<image preserveAspectRatio="none" x="860" y="480" width="181" height="53" href="img/9.png"/>
</g>
<path fill-rule="evenodd" d="M815.5 524.5h249.9V442.2H815.5v82.3Z" class="g1_9"/>
<g clip-path="url(#c0_9)">
<image preserveAspectRatio="none" x="850" y="471" width="182" height="53" href="img/10.png"/>
<image preserveAspectRatio="none" x="455" y="451" width="250" height="83" href="img/11.png"/>
<image preserveAspectRatio="none" x="507" y="480" width="147" height="51" href="img/12.png"/>
</g>
<path fill-rule="evenodd" d="M445.9 524.5H695.7V442.2H445.9v82.3Z" class="g1_9"/>
<g clip-path="url(#c0_9)">
<image preserveAspectRatio="none" x="498" y="471" width="147" height="51" href="img/13.png"/>
<image preserveAspectRatio="none" x="78" y="451" width="250" height="83" href="img/14.png"/>
<image preserveAspectRatio="none" x="125" y="480" width="158" height="53" href="img/15.png"/>
</g>
<path fill-rule="evenodd" d="M69.3 524.5H319.2V442.2H69.3v82.3Z" class="g1_9"/>
<g clip-path="url(#c0_9)">
<image preserveAspectRatio="none" x="115" y="471" width="159" height="53" href="img/16.png"/>
<image preserveAspectRatio="none" x="78" y="451" width="250" height="83" href="img/17.png"/>
<image preserveAspectRatio="none" x="125" y="480" width="158" height="53" href="img/18.png"/>
</g>
<path fill-rule="evenodd" d="M69.3 524.5H319.2V442.2H69.3v82.3Z" class="g2_9"/>
<g clip-path="url(#c0_9)">
<image preserveAspectRatio="none" x="115" y="471" width="159" height="53" href="img/19.png"/>
<image preserveAspectRatio="none" x="781" y="26" width="309" height="127" href="img/20.png"/>
<image preserveAspectRatio="none" x="752" y="26" width="106" height="127" href="img/21.png"/>
<image preserveAspectRatio="none" x="395" y="26" width="434" height="127" href="img/22.png"/>
</g>
</svg>