<svg viewBox="0 0 1466 825" version="1.1" xmlns="http://www.w3.org/2000/svg">
<defs>
<clipPath id="c0_41"><path d="M-.2 825.3V-.2H1467V825.3Z"/></clipPath>
<style>
.g0_41{fill:#E2D9BD;}
.g1_41{fill:#C7B1F2;}
.g2_41{fill:#C00000;}
.g3_41{fill:#FCE9D2;}
</style>
</defs>
<g clip-path="url(#c0_41)">
<image preserveAspectRatio="none" x="0" y="0" width="1467" height="825" href="img/1.png"/>
<image preserveAspectRatio="none" x="356" y="287" width="727" height="72" href="img/2.png"/>
<image preserveAspectRatio="none" x="417" y="312" width="604" height="45" href="img/3.png"/>
</g>
<path fill-rule="evenodd" d="M346.9 350h727.3V277.9H346.9V350Z" class="g0_41"/>
<g clip-path="url(#c0_41)">
<image preserveAspectRatio="none" x="408" y="303" width="605" height="45" href="img/4.png"/>
<image preserveAspectRatio="none" x="1109" y="391" width="282" height="72" href="img/5.png"/>
<image preserveAspectRatio="none" x="1126" y="410" width="249" height="45" href="img/6.png"/>
</g>
<path fill-rule="evenodd" d="M1100 454.1h282v-72H1100v72Z" class="g1_41"/>
<g clip-path="url(#c0_41)">
<image preserveAspectRatio="none" x="1117" y="400" width="249" height="46" href="img/7.png"/>
<image preserveAspectRatio="none" x="735" y="391" width="344" height="72" href="img/8.png"/>
<image preserveAspectRatio="none" x="754" y="417" width="307" height="38" href="img/9.png"/>
</g>
<path fill-rule="evenodd" d="M726.2 454.1h344.1v-72H726.2v72Z" class="g1_41"/>
<g clip-path="url(#c0_41)">
<image preserveAspectRatio="none" x="745" y="408" width="307" height="38" href="img/10.png"/>
<image preserveAspectRatio="none" x="424" y="391" width="282" height="72" href="img/11.png"/>
<image preserveAspectRatio="none" x="439" y="417" width="252" height="38" href="img/12.png"/>
</g>
<path fill-rule="evenodd" d="M414.5 454.1h282v-72h-282v72Z" class="g1_41"/>
<g clip-path="url(#c0_41)">
<image preserveAspectRatio="none" x="429" y="408" width="253" height="38" href="img/13.png"/>
<image preserveAspectRatio="none" x="100" y="391" width="294" height="72" href="img/14.png"/>
<image preserveAspectRatio="none" x="115" y="417" width="264" height="38" href="img/15.png"/>
</g>
<path fill-rule="evenodd" d="M91.1 454.1H384.8v-72H91.1v72Z" class="g1_41"/>
<g clip-path="url(#c0_41)">
<image preserveAspectRatio="none" x="106" y="408" width="264" height="38" href="img/16.png"/>
<image preserveAspectRatio="none" x="735" y="394" width="343" height="72" href="img/17.png"/>
<image preserveAspectRatio="none" x="753" y="420" width="307" height="38" href="img/18.png"/>
</g>
<path fill-rule="evenodd" d="M726.2 457.1h342.6V385H726.2v72.1Z" class="g2_41"/>
<g clip-path="url(#c0_41)">
<image preserveAspectRatio="none" x="744" y="411" width="307" height="38" href="img/19.png"/>
<image preserveAspectRatio="none" x="335" y="534" width="788" height="72" href="img/20.png"/>
<image preserveAspectRatio="none" x="570" y="559" width="318" height="38" href="img/21.png"/>
</g>
<path fill-rule="evenodd" d="M326.1 597.1h788V524.9h-788v72.2Z" class="g3_41"/>
<g clip-path="url(#c0_41)">
<image preserveAspectRatio="none" x="561" y="550" width="318" height="38" href="img/22.png"/>
<image preserveAspectRatio="none" x="335" y="625" width="788" height="72" href="img/23.png"/>
<image preserveAspectRatio="none" x="399" y="650" width="661" height="40" href="img/24.png"/>
</g>
<path fill-rule="evenodd" d="M326.1 688.1h788V616h-788v72.1Z" class="g3_41"/>
<g clip-path="url(#c0_41)">
<image preserveAspectRatio="none" x="389" y="641" width="662" height="40" href="img/25.png"/>
<image preserveAspectRatio="none" x="335" y="716" width="788" height="72" href="img/26.png"/>
<image preserveAspectRatio="none" x="355" y="742" width="749" height="39" href="img/27.png"/>
</g>
<path fill-rule="evenodd" d="M326.1 779.2h788V707.1h-788v72.1Z" class="g3_41"/>
<g clip-path="url(#c0_41)">
<image preserveAspectRatio="none" x="346" y="733" width="749" height="39" href="img/28.png"/>
<image preserveAspectRatio="none" x="515" y="186" width="411" height="83" href="img/29.png"/>
<image preserveAspectRatio="none" x="549" y="210" width="344" height="50" href="img/30.png"/>
</g>
<path fill-rule="evenodd" d="M506.4 259.8H916.7V177.5H506.4v82.3Z" class="g0_41"/>
<g clip-path="url(#c0_41)">
<image preserveAspectRatio="none" x="540" y="200" width="344" height="51" href="img/31.png"/>
<image preserveAspectRatio="none" x="714" y="25" width="394" height="126" href="img/32.png"/>
<image preserveAspectRatio="none" x="685" y="25" width="106" height="126" href="img/33.png"/>
<image preserveAspectRatio="none" x="337" y="25" width="425" height="126" href="img/34.png"/>
<image preserveAspectRatio="none" x="322" y="25" width="92" height="126" href="img/35.png"/>
</g>
</svg>