<svg viewBox="0 0 1466 825" version="1.1" xmlns="http://www.w3.org/2000/svg">
<defs>
<clipPath id="c0_45"><path d="M-.2 825.3V-.2H1467V825.3Z"/></clipPath>
<style>
.g0_45{fill:#E2D9BD;}
.g1_45{fill:#C7B1F2;}
.g2_45{fill:none;stroke:#F00;stroke-width:4.583;stroke-miterlimit:10;}
</style>
</defs>
<g clip-path="url(#c0_45)">
<image preserveAspectRatio="none" x="0" y="0" width="1467" height="825" href="img/1.png"/>
<image preserveAspectRatio="none" x="119" y="314" width="1292" height="72" href="img/2.png"/>
<image preserveAspectRatio="none" x="142" y="339" width="1246" height="38" href="img/3.png"/>
</g>
<path fill-rule="evenodd" d="M110.4 376.6H1402.1V304.5H110.4v72.1Z" class="g0_45"/>
<g clip-path="url(#c0_45)">
<image preserveAspectRatio="none" x="133" y="330" width="1246" height="39" href="img/4.png"/>
<image preserveAspectRatio="none" x="810" y="461" width="482" height="73" href="img/5.png"/>
<image preserveAspectRatio="none" x="853" y="480" width="398" height="45" href="img/6.png"/>
</g>
<path fill-rule="evenodd" d="M801 524.7h481.6V452.5H801v72.2Z" class="g1_45"/>
<g clip-path="url(#c0_45)">
<image preserveAspectRatio="none" x="843" y="471" width="399" height="45" href="img/7.png"/>
<image preserveAspectRatio="none" x="193" y="461" width="493" height="73" href="img/8.png"/>
<image preserveAspectRatio="none" x="215" y="487" width="450" height="38" href="img/9.png"/>
</g>
<path fill-rule="evenodd" d="M184.1 524.7H676.5V452.5H184.1v72.2Z" class="g1_45"/>
<g clip-path="url(#c0_45)">
<image preserveAspectRatio="none" x="205" y="479" width="451" height="37" href="img/10.png"/>
<image preserveAspectRatio="none" x="810" y="613" width="482" height="72" href="img/11.png"/>
<image preserveAspectRatio="none" x="826" y="639" width="451" height="37" href="img/12.png"/>
</g>
<path fill-rule="evenodd" d="M801 675.8h481.6V603.7H801v72.1Z" class="g1_45"/>
<image clip-path="url(#c0_45)" preserveAspectRatio="none" x="816" y="630" width="452" height="37" href="img/13.png"/>
<path d="M820.1 667.1h50.8m199.1 0h67.7" class="g2_45"/>
<g clip-path="url(#c0_45)">
<image preserveAspectRatio="none" x="833" y="679" width="43" height="59" href="img/14.png"/>
<image preserveAspectRatio="none" x="846" y="703" width="16" height="23" href="img/15.png"/>
</g>
<path fill-rule="evenodd" d="M823.5 729.3h42.9V669.5H823.5v59.8Z" class="g1_45"/>
<g clip-path="url(#c0_45)">
<image preserveAspectRatio="none" x="836" y="693" width="17" height="24" href="img/16.png"/>
<image preserveAspectRatio="none" x="1091" y="680" width="43" height="59" href="img/17.png"/>
<image preserveAspectRatio="none" x="1104" y="703" width="16" height="24" href="img/18.png"/>
</g>
<path fill-rule="evenodd" d="M1081.9 730.4h42.9V670.6h-42.9v59.8Z" class="g1_45"/>
<g clip-path="url(#c0_45)">
<image preserveAspectRatio="none" x="1095" y="694" width="17" height="24" href="img/19.png"/>
<image preserveAspectRatio="none" x="193" y="604" width="493" height="73" href="img/20.png"/>
<image preserveAspectRatio="none" x="217" y="630" width="446" height="38" href="img/21.png"/>
</g>
<path fill-rule="evenodd" d="M184.1 667.7H676.5V595.5H184.1v72.2Z" class="g1_45"/>
<g clip-path="url(#c0_45)">
<image preserveAspectRatio="none" x="207" y="622" width="447" height="37" href="img/22.png"/>
<image preserveAspectRatio="none" x="515" y="186" width="411" height="83" href="img/23.png"/>
<image preserveAspectRatio="none" x="549" y="210" width="344" height="50" href="img/24.png"/>
</g>
<path fill-rule="evenodd" d="M506.4 259.8H916.7V177.5H506.4v82.3Z" class="g0_45"/>
<g clip-path="url(#c0_45)">
<image preserveAspectRatio="none" x="540" y="200" width="344" height="51" href="img/25.png"/>
<image preserveAspectRatio="none" x="714" y="25" width="394" height="126" href="img/26.png"/>
<image preserveAspectRatio="none" x="685" y="25" width="106" height="126" href="img/27.png"/>
<image preserveAspectRatio="none" x="337" y="25" width="425" height="126" href="img/28.png"/>
<image preserveAspectRatio="none" x="322" y="25" width="92" height="126" href="img/29.png"/>
</g>
</svg>