<svg viewBox="0 0 1466 825" version="1.1" xmlns="http://www.w3.org/2000/svg">
<defs>
<clipPath id="c0_9"><path d="M-.2 825.3V-.2H1467V825.3Z"/></clipPath>
<style>
.g0_9{fill:#E2D9BD;}
.g1_9{fill:#C7B1F2;}
.g2_9{fill:#C00000;}
</style>
</defs>
<g clip-path="url(#c0_9)">
<image preserveAspectRatio="none" x="0" y="0" width="1467" height="825" href="img/1.png"/>
<image preserveAspectRatio="none" x="104" y="244" width="1277" height="139" href="img/2.png"/>
<image preserveAspectRatio="none" x="147" y="269" width="1191" height="112" href="img/3.png"/>
</g>
<path fill-rule="evenodd" d="M95.1 373.6H1371.5V234.9H95.1V373.6Z" class="g0_9"/>
<g clip-path="url(#c0_9)">
<image preserveAspectRatio="none" x="137" y="260" width="1192" height="111" href="img/4.png"/>
<image preserveAspectRatio="none" x="1209" y="496" width="184" height="73" href="img/5.png"/>
<image preserveAspectRatio="none" x="1234" y="515" width="134" height="46" href="img/6.png"/>
</g>
<path fill-rule="evenodd" d="M1200.3 559.5h184.1V487.3H1200.3v72.2Z" class="g1_9"/>
<g clip-path="url(#c0_9)">
<image preserveAspectRatio="none" x="1225" y="506" width="135" height="46" href="img/7.png"/>
<image preserveAspectRatio="none" x="879" y="496" width="204" height="73" href="img/8.png"/>
<image preserveAspectRatio="none" x="894" y="515" width="174" height="45" href="img/9.png"/>
</g>
<path fill-rule="evenodd" d="M869.7 559.5h204.1V487.3H869.7v72.2Z" class="g1_9"/>
<g clip-path="url(#c0_9)">
<image preserveAspectRatio="none" x="884" y="506" width="175" height="45" href="img/10.png"/>
<image preserveAspectRatio="none" x="556" y="496" width="196" height="73" href="img/11.png"/>
<image preserveAspectRatio="none" x="591" y="522" width="128" height="38" href="img/12.png"/>
</g>
<path fill-rule="evenodd" d="M547.3 559.5H743.2V487.3H547.3v72.2Z" class="g1_9"/>
<g clip-path="url(#c0_9)">
<image preserveAspectRatio="none" x="581" y="514" width="129" height="37" href="img/13.png"/>
<image preserveAspectRatio="none" x="84" y="496" width="346" height="73" href="img/14.png"/>
<image preserveAspectRatio="none" x="104" y="522" width="306" height="38" href="img/15.png"/>
</g>
<path fill-rule="evenodd" d="M75.4 559.5H420.7V487.3H75.4v72.2Z" class="g1_9"/>
<g clip-path="url(#c0_9)">
<image preserveAspectRatio="none" x="94" y="513" width="308" height="38" href="img/16.png"/>
<image preserveAspectRatio="none" x="556" y="496" width="196" height="73" href="img/17.png"/>
<image preserveAspectRatio="none" x="591" y="522" width="128" height="38" href="img/18.png"/>
</g>
<path fill-rule="evenodd" d="M547.3 559.5H743.2V487.3H547.3v72.2Z" class="g2_9"/>
<g clip-path="url(#c0_9)">
<image preserveAspectRatio="none" x="581" y="514" width="129" height="37" href="img/19.png"/>
<image preserveAspectRatio="none" x="762" y="33" width="346" height="127" href="img/20.png"/>
<image preserveAspectRatio="none" x="733" y="33" width="105" height="127" href="img/21.png"/>
<image preserveAspectRatio="none" x="374" y="33" width="436" height="127" href="img/22.png"/>
<image preserveAspectRatio="none" x="358" y="33" width="92" height="127" href="img/23.png"/>
</g>
</svg>