<svg viewBox="0 0 1466 825" version="1.1" xmlns="http://www.w3.org/2000/svg">
<defs>
<clipPath id="c0_51"><path d="M-.2 825.3V-.2H1467V825.3Z"/></clipPath>
<clipPath id="c1_51"><path d="M580.1 412.8V362.9H701.8v49.9Z"/></clipPath>
<style>
.g0_51{fill:#E2D9BD;}
.g1_51{fill:#C7B1F2;}
.g2_51{fill:#C00000;}
</style>
</defs>
<g clip-path="url(#c0_51)">
<image preserveAspectRatio="none" x="0" y="0" width="1467" height="825" href="img/1.png"/>
<image preserveAspectRatio="none" x="198" y="282" width="1027" height="211" href="img/2.png"/>
<image preserveAspectRatio="none" x="395" y="307" width="635" height="172" href="img/3.png"/>
</g>
<path fill-rule="evenodd" d="M189.4 484H1216.1V272.8H189.4V484Z" class="g0_51"/>
<image clip-path="url(#c0_51)" preserveAspectRatio="none" x="386" y="298" width="635" height="172" href="img/4.png"/>
<image clip-path="url(#c1_51)" preserveAspectRatio="none" x="580" y="363" width="121" height="50" href="img/5.png"/>
<g clip-path="url(#c0_51)">
<image preserveAspectRatio="none" x="774" y="538" width="590" height="73" href="img/6.png"/>
<image preserveAspectRatio="none" x="931" y="557" width="277" height="45" href="img/7.png"/>
</g>
<path fill-rule="evenodd" d="M765.2 601.5H1355v-72H765.2v72Z" class="g1_51"/>
<g clip-path="url(#c0_51)">
<image preserveAspectRatio="none" x="922" y="548" width="278" height="45" href="img/8.png"/>
<image preserveAspectRatio="none" x="121" y="538" width="590" height="73" href="img/9.png"/>
<image preserveAspectRatio="none" x="277" y="564" width="276" height="42" href="img/10.png"/>
</g>
<path fill-rule="evenodd" d="M111.7 601.5H701.4v-72H111.7v72Z" class="g1_51"/>
<g clip-path="url(#c0_51)">
<image preserveAspectRatio="none" x="268" y="556" width="276" height="41" href="img/11.png"/>
<image preserveAspectRatio="none" x="774" y="656" width="590" height="72" href="img/12.png"/>
<image preserveAspectRatio="none" x="800" y="682" width="538" height="40" href="img/13.png"/>
</g>
<path fill-rule="evenodd" d="M765.2 719.2H1355v-72H765.2v72Z" class="g1_51"/>
<g clip-path="url(#c0_51)">
<image preserveAspectRatio="none" x="791" y="673" width="538" height="39" href="img/14.png"/>
<image preserveAspectRatio="none" x="121" y="656" width="590" height="72" href="img/15.png"/>
<image preserveAspectRatio="none" x="166" y="682" width="499" height="40" href="img/16.png"/>
</g>
<path fill-rule="evenodd" d="M111.7 719.2H701.4v-72H111.7v72Z" class="g1_51"/>
<g clip-path="url(#c0_51)">
<image preserveAspectRatio="none" x="157" y="673" width="499" height="39" href="img/17.png"/>
<image preserveAspectRatio="none" x="121" y="538" width="590" height="73" href="img/18.png"/>
<image preserveAspectRatio="none" x="273" y="562" width="285" height="50" href="img/19.png"/>
</g>
<path fill-rule="evenodd" d="M111.7 601.5H701.4v-72H111.7v72Z" class="g2_51"/>
<g clip-path="url(#c0_51)">
<image preserveAspectRatio="none" x="264" y="553" width="285" height="50" href="img/20.png"/>
<image preserveAspectRatio="none" x="507" y="187" width="410" height="82" href="img/21.png"/>
<image preserveAspectRatio="none" x="540" y="210" width="344" height="50" href="img/22.png"/>
</g>
<path fill-rule="evenodd" d="M497.6 260.2H908V177.8H497.6v82.4Z" class="g0_51"/>
<image clip-path="url(#c0_51)" preserveAspectRatio="none" x="531" y="201" width="344" height="50" href="img/23.png"/>
</svg>