<svg viewBox="0 0 1466 825" version="1.1" xmlns="http://www.w3.org/2000/svg">
<defs>
<clipPath id="c0_46"><path d="M-.2 825.3V-.2H1467V825.3Z"/></clipPath>
<clipPath id="c1_46"><path d="M82 481.2v-252H418.9v252Z"/></clipPath>
<style>
.g0_46{fill:#E2D9BD;}
.g1_46{fill:#C7B1F2;}
.g2_46{fill:#BBE0E3;}
.g3_46{fill:#E7F3F4;}
.g4_46{fill:none;stroke:#FFF;stroke-width:1.527;stroke-linejoin:round;}
.g5_46{fill:none;stroke:#FFF;stroke-width:4.583;stroke-linejoin:round;}
.g6_46{fill:#C00000;}
</style>
</defs>
<g clip-path="url(#c0_46)">
<image preserveAspectRatio="none" x="0" y="0" width="1467" height="825" href="img/1.png"/>
<image preserveAspectRatio="none" x="501" y="196" width="465" height="59" href="img/2.png"/>
<image preserveAspectRatio="none" x="545" y="195" width="377" height="58" href="img/3.png"/>
</g>
<path fill-rule="evenodd" d="M491.5 246H956.8V187H491.5v59Z" class="g0_46"/>
<g clip-path="url(#c0_46)">
<image preserveAspectRatio="none" x="535" y="186" width="378" height="58" href="img/4.png"/>
<image preserveAspectRatio="none" x="1057" y="289" width="347" height="52" href="img/5.png"/>
<image preserveAspectRatio="none" x="1111" y="294" width="248" height="46" href="img/6.png"/>
</g>
<image x="1048" y="279" width="348" height="54" href="shade/1.png"/>
<image clip-path="url(#c0_46)" preserveAspectRatio="none" x="1101" y="285" width="249" height="45" href="img/7.png"/>
<image clip-path="url(#c1_46)" preserveAspectRatio="none" x="82" y="230" width="337" height="251" href="img/8.jpg"/>
<g clip-path="url(#c0_46)">
<image preserveAspectRatio="none" x="452" y="370" width="952" height="100" href="img/9.png"/>
<image preserveAspectRatio="none" x="483" y="372" width="891" height="89" href="img/10.png"/>
</g>
<path fill-rule="evenodd" d="M443.5 461.3h951.8V361.2H443.5V461.3Z" class="g0_46"/>
<g clip-path="url(#c0_46)">
<image preserveAspectRatio="none" x="473" y="362" width="892" height="90" href="img/11.png"/>
<image preserveAspectRatio="none" x="1292" y="519" width="111" height="72" href="img/12.png"/>
<image preserveAspectRatio="none" x="1340" y="542" width="17" height="41" href="img/13.png"/>
</g>
<path fill-rule="evenodd" d="M1283 582.3h111.2V510.2H1283v72.1Z" class="g1_46"/>
<image clip-path="url(#c0_46)" preserveAspectRatio="none" x="1331" y="533" width="17" height="41" href="img/14.png"/>
<path fill-rule="evenodd" d="M1010.9 546.3h249.8V501.6H1010.9v44.7Z" class="g2_46"/>
<path fill-rule="evenodd" d="M761.2 546.3h249.7V501.6H761.2v44.7Z" class="g2_46"/>
<path fill-rule="evenodd" d="M1010.9 590.9h249.8V546.3H1010.9v44.6Z" class="g3_46"/>
<path fill-rule="evenodd" d="M761.2 590.9h249.7V546.3H761.2v44.6Z" class="g3_46"/>
<path d="M1010.9 500.8v90.9" class="g4_46"/>
<path d="M760.4 546.3h501" class="g5_46"/>
<path d="M1260.6 500.8v90.9M761.2 500.8v90.9m-.8-90.1h501m-501 89.3h501" class="g4_46"/>
<g clip-path="url(#c0_46)">
<image preserveAspectRatio="none" x="1292" y="655" width="112" height="73" href="img/15.png"/>
<image preserveAspectRatio="none" x="1334" y="689" width="27" height="29" href="img/16.png"/>
</g>
<path fill-rule="evenodd" d="M1283 718.7h111.4V646.4H1283v72.3Z" class="g1_46"/>
<image clip-path="url(#c0_46)" preserveAspectRatio="none" x="1324" y="680" width="29" height="28" href="img/17.png"/>
<path fill-rule="evenodd" d="M1010.9 683.1h249.8v-44H1010.9v44Z" class="g2_46"/>
<path fill-rule="evenodd" d="M761.2 683.1h249.7v-44H761.2v44Z" class="g2_46"/>
<path fill-rule="evenodd" d="M1010.9 727.7h249.8V683.1H1010.9v44.6Z" class="g3_46"/>
<path fill-rule="evenodd" d="M761.2 727.7h249.7V683.1H761.2v44.6Z" class="g3_46"/>
<path d="M1010.9 638.3v90.2" class="g4_46"/>
<path d="M760.4 683.1h501" class="g5_46"/>
<path d="M1260.6 638.3v90.2M761.2 638.3v90.2m-.8-89.4h501m-501 88.6h501" class="g4_46"/>
<g clip-path="url(#c0_46)">
<image preserveAspectRatio="none" x="622" y="523" width="111" height="72" href="img/18.png"/>
<image preserveAspectRatio="none" x="669" y="557" width="19" height="29" href="img/19.png"/>
</g>
<path fill-rule="evenodd" d="M612.9 586.3H724.3V514.1H612.9v72.2Z" class="g1_46"/>
<image clip-path="url(#c0_46)" preserveAspectRatio="none" x="659" y="548" width="20" height="29" href="img/20.png"/>
<path fill-rule="evenodd" d="M344.1 574.6H605.8V512.4H344.1v62.2Z" class="g2_46"/>
<path fill-rule="evenodd" d="M82.4 574.6H344.1V512.4H82.4v62.2Z" class="g2_46"/>
<path fill-rule="evenodd" d="M344.1 619.2H605.8V574.6H344.1v44.6Z" class="g3_46"/>
<path fill-rule="evenodd" d="M82.4 619.2H344.1V574.6H82.4v44.6Z" class="g3_46"/>
<path d="M344.1 511.7V620" class="g4_46"/>
<path d="M81.6 574.6H606.5" class="g5_46"/>
<path d="M605.8 511.7V620M82.4 511.7V620m-.8-107.6H606.5M81.6 619.2H606.5" class="g4_46"/>
<g clip-path="url(#c0_46)">
<image preserveAspectRatio="none" x="622" y="655" width="111" height="73" href="img/21.png"/>
<image preserveAspectRatio="none" x="670" y="688" width="15" height="23" href="img/22.png"/>
</g>
<path fill-rule="evenodd" d="M612.9 718.7H724.3V646.4H612.9v72.3Z" class="g1_46"/>
<image clip-path="url(#c0_46)" preserveAspectRatio="none" x="661" y="678" width="16" height="24" href="img/23.png"/>
<path fill-rule="evenodd" d="M339.6 691.3H596.7V638.2H339.6v53.1Z" class="g2_46"/>
<path fill-rule="evenodd" d="M82.4 691.3H339.6V638.2H82.4v53.1Z" class="g2_46"/>
<path fill-rule="evenodd" d="M339.6 745H596.7V691.3H339.6V745Z" class="g3_46"/>
<path fill-rule="evenodd" d="M82.4 745H339.6V691.3H82.4V745Z" class="g3_46"/>
<path d="M339.6 637.5V745.8" class="g4_46"/>
<path d="M81.6 691.3H597.5" class="g5_46"/>
<path d="M596.7 637.5V745.8M82.4 637.5V745.8m-.8-107.6H597.5M81.6 745H597.5" class="g4_46"/>
<g clip-path="url(#c0_46)">
<image preserveAspectRatio="none" x="1292" y="515" width="111" height="72" href="img/24.png"/>
<image preserveAspectRatio="none" x="1340" y="538" width="17" height="41" href="img/25.png"/>
</g>
<path fill-rule="evenodd" d="M1283 578.2h111.2v-72H1283v72Z" class="g6_46"/>
<image clip-path="url(#c0_46)" preserveAspectRatio="none" x="1331" y="529" width="17" height="41" href="img/26.png"/>
</svg>