<svg viewBox="0 0 1466 825" version="1.1" xmlns="http://www.w3.org/2000/svg">
<defs>
<clipPath id="c0_23"><path d="M-.2 825.3V-.2H1467V825.3Z"/></clipPath>
<style>
.g0_23{fill:#E2D9BD;}
.g1_23{fill:#C7B1F2;}
.g2_23{fill:#C00000;}
</style>
</defs>
<g clip-path="url(#c0_23)">
<image preserveAspectRatio="none" x="0" y="0" width="1467" height="825" href="img/1.png"/>
<image preserveAspectRatio="none" x="103" y="207" width="1304" height="205" href="img/2.png"/>
<image preserveAspectRatio="none" x="142" y="233" width="1226" height="173" href="img/3.png"/>
</g>
<path fill-rule="evenodd" d="M93.7 403.2H1398.1V197.8H93.7V403.2Z" class="g0_23"/>
<g clip-path="url(#c0_23)">
<image preserveAspectRatio="none" x="133" y="224" width="1227" height="173" href="img/4.png"/>
<image preserveAspectRatio="none" x="820" y="485" width="580" height="83" href="img/5.png"/>
<image preserveAspectRatio="none" x="915" y="515" width="392" height="48" href="img/6.png"/>
</g>
<path fill-rule="evenodd" d="M810.9 558.8h580.2V476.5H810.9v82.3Z" class="g1_23"/>
<g clip-path="url(#c0_23)">
<image preserveAspectRatio="none" x="905" y="506" width="393" height="48" href="img/7.png"/>
<image preserveAspectRatio="none" x="121" y="482" width="581" height="83" href="img/8.png"/>
<image preserveAspectRatio="none" x="251" y="512" width="323" height="48" href="img/9.png"/>
</g>
<path fill-rule="evenodd" d="M112.2 555.7H692.4V473.4H112.2v82.3Z" class="g1_23"/>
<g clip-path="url(#c0_23)">
<image preserveAspectRatio="none" x="241" y="503" width="324" height="48" href="img/10.png"/>
<image preserveAspectRatio="none" x="827" y="610" width="580" height="82" href="img/11.png"/>
<image preserveAspectRatio="none" x="955" y="639" width="326" height="48" href="img/12.png"/>
</g>
<path fill-rule="evenodd" d="M817.9 682.9h580.2V600.6H817.9v82.3Z" class="g1_23"/>
<g clip-path="url(#c0_23)">
<image preserveAspectRatio="none" x="946" y="631" width="326" height="47" href="img/13.png"/>
<image preserveAspectRatio="none" x="121" y="610" width="581" height="82" href="img/14.png"/>
<image preserveAspectRatio="none" x="175" y="639" width="475" height="52" href="img/15.png"/>
</g>
<path fill-rule="evenodd" d="M112.2 682.9H692.4V600.6H112.2v82.3Z" class="g1_23"/>
<g clip-path="url(#c0_23)">
<image preserveAspectRatio="none" x="165" y="630" width="476" height="51" href="img/16.png"/>
<image preserveAspectRatio="none" x="820" y="485" width="580" height="83" href="img/17.png"/>
<image preserveAspectRatio="none" x="915" y="515" width="392" height="48" href="img/18.png"/>
</g>
<path fill-rule="evenodd" d="M810.9 558.8h580.2V476.5H810.9v82.3Z" class="g2_23"/>
<image clip-path="url(#c0_23)" preserveAspectRatio="none" x="905" y="506" width="393" height="48" href="img/19.png"/>
</svg>