<svg viewBox="0 0 1466 825" version="1.1" xmlns="http://www.w3.org/2000/svg">
<defs>
<clipPath id="c0_60"><path d="M-.2 825.3V-.2H1467V825.3Z"/></clipPath>
<style>
.g0_60{fill:#E2D9BD;}
.g1_60{fill:#C7B1F2;}
.g2_60{fill:#C00000;}
</style>
</defs>
<g clip-path="url(#c0_60)">
<image preserveAspectRatio="none" x="0" y="0" width="1467" height="825" href="img/1.png"/>
<image preserveAspectRatio="none" x="200" y="228" width="1085" height="72" href="img/2.png"/>
<image preserveAspectRatio="none" x="222" y="254" width="1042" height="39" href="img/3.png"/>
</g>
<path fill-rule="evenodd" d="M191 291.3H1275.6v-72H191v72Z" class="g0_60"/>
<g clip-path="url(#c0_60)">
<image preserveAspectRatio="none" x="213" y="244" width="1042" height="40" href="img/4.png"/>
<image preserveAspectRatio="none" x="905" y="401" width="380" height="72" href="img/5.png"/>
<image preserveAspectRatio="none" x="927" y="419" width="337" height="49" href="img/6.png"/>
</g>
<path fill-rule="evenodd" d="M896.5 463.6h379.1v-72H896.5v72Z" class="g1_60"/>
<g clip-path="url(#c0_60)">
<image preserveAspectRatio="none" x="918" y="410" width="337" height="49" href="img/7.png"/>
<image preserveAspectRatio="none" x="200" y="401" width="391" height="72" href="img/8.png"/>
<image preserveAspectRatio="none" x="262" y="419" width="268" height="49" href="img/9.png"/>
</g>
<path fill-rule="evenodd" d="M191 463.6H582.1v-72H191v72Z" class="g1_60"/>
<g clip-path="url(#c0_60)">
<image preserveAspectRatio="none" x="253" y="410" width="268" height="49" href="img/10.png"/>
<image preserveAspectRatio="none" x="905" y="573" width="380" height="72" href="img/11.png"/>
<image preserveAspectRatio="none" x="962" y="598" width="266" height="42" href="img/12.png"/>
</g>
<path fill-rule="evenodd" d="M896.5 635.8h379.1v-72H896.5v72Z" class="g1_60"/>
<g clip-path="url(#c0_60)">
<image preserveAspectRatio="none" x="952" y="589" width="268" height="42" href="img/13.png"/>
<image preserveAspectRatio="none" x="200" y="573" width="391" height="72" href="img/14.png"/>
<image preserveAspectRatio="none" x="266" y="591" width="259" height="49" href="img/15.png"/>
</g>
<path fill-rule="evenodd" d="M191 635.8H582.1v-72H191v72Z" class="g1_60"/>
<g clip-path="url(#c0_60)">
<image preserveAspectRatio="none" x="256" y="582" width="260" height="49" href="img/16.png"/>
<image preserveAspectRatio="none" x="905" y="401" width="380" height="72" href="img/17.png"/>
<image preserveAspectRatio="none" x="927" y="419" width="337" height="49" href="img/18.png"/>
</g>
<path fill-rule="evenodd" d="M896.5 463.6h379.1v-72H896.5v72Z" class="g2_60"/>
<g clip-path="url(#c0_60)">
<image preserveAspectRatio="none" x="918" y="410" width="337" height="49" href="img/19.png"/>
<image preserveAspectRatio="none" x="714" y="25" width="394" height="126" href="img/20.png"/>
<image preserveAspectRatio="none" x="685" y="25" width="106" height="126" href="img/21.png"/>
<image preserveAspectRatio="none" x="337" y="25" width="425" height="126" href="img/22.png"/>
<image preserveAspectRatio="none" x="322" y="25" width="92" height="126" href="img/23.png"/>
</g>
</svg>