<svg viewBox="0 0 1466 825" version="1.1" xmlns="http://www.w3.org/2000/svg">
<defs>
<clipPath id="c0_54"><path d="M-.2 825.3V-.2H1467V825.3Z"/></clipPath>
<style>
.g0_54{fill:#E2D9BD;}
.g1_54{fill:#C7B1F2;}
.g2_54{fill:#C00000;}
</style>
</defs>
<g clip-path="url(#c0_54)">
<image preserveAspectRatio="none" x="0" y="0" width="1467" height="825" href="img/1.png"/>
<image preserveAspectRatio="none" x="936" y="293" width="465" height="72" href="img/2.png"/>
<image preserveAspectRatio="none" x="955" y="311" width="426" height="52" href="img/3.png"/>
</g>
<path fill-rule="evenodd" d="M926.7 355.9H1392V283.8H926.7v72.1Z" class="g0_54"/>
<g clip-path="url(#c0_54)">
<image preserveAspectRatio="none" x="945" y="302" width="427" height="52" href="img/4.png"/>
<image preserveAspectRatio="none" x="1323" y="406" width="109" height="82" href="img/5.png"/>
<image preserveAspectRatio="none" x="1368" y="424" width="20" height="55" href="img/6.png"/>
</g>
<path fill-rule="evenodd" d="M1314.3 479.4H1423V397.1H1314.3v82.3Z" class="g1_54"/>
<g clip-path="url(#c0_54)">
<image preserveAspectRatio="none" x="1359" y="414" width="20" height="56" href="img/7.png"/>
<image preserveAspectRatio="none" x="327" y="408" width="966" height="79" href="img/8.png"/>
<image preserveAspectRatio="none" x="382" y="437" width="857" height="59" href="img/9.png"/>
</g>
<path fill-rule="evenodd" d="M317.7 477.8h966V398.6h-966v79.2Z" class="g1_54"/>
<g clip-path="url(#c0_54)">
<image preserveAspectRatio="none" x="373" y="427" width="857" height="60" href="img/10.png"/>
<image preserveAspectRatio="none" x="1324" y="507" width="107" height="82" href="img/11.png"/>
<image preserveAspectRatio="none" x="1357" y="543" width="42" height="42" href="img/12.png"/>
</g>
<path fill-rule="evenodd" d="M1315.1 580.3h107.2V497.8H1315.1v82.5Z" class="g1_54"/>
<g clip-path="url(#c0_54)">
<image preserveAspectRatio="none" x="1348" y="533" width="42" height="43" href="img/13.png"/>
<image preserveAspectRatio="none" x="327" y="508" width="966" height="80" href="img/14.png"/>
<image preserveAspectRatio="none" x="353" y="537" width="916" height="59" href="img/15.png"/>
</g>
<path fill-rule="evenodd" d="M317.7 578.6h966V499.4h-966v79.2Z" class="g1_54"/>
<g clip-path="url(#c0_54)">
<image preserveAspectRatio="none" x="344" y="528" width="916" height="59" href="img/16.png"/>
<image preserveAspectRatio="none" x="1323" y="609" width="109" height="83" href="img/17.png"/>
<image preserveAspectRatio="none" x="1363" y="646" width="32" height="42" href="img/18.png"/>
</g>
<path fill-rule="evenodd" d="M1314.3 682.6H1423V600.1H1314.3v82.5Z" class="g1_54"/>
<g clip-path="url(#c0_54)">
<image preserveAspectRatio="none" x="1354" y="636" width="32" height="43" href="img/19.png"/>
<image preserveAspectRatio="none" x="327" y="611" width="966" height="79" href="img/20.png"/>
<image preserveAspectRatio="none" x="465" y="640" width="692" height="59" href="img/21.png"/>
</g>
<path fill-rule="evenodd" d="M317.7 680.9h966V601.7h-966v79.2Z" class="g1_54"/>
<g clip-path="url(#c0_54)">
<image preserveAspectRatio="none" x="456" y="630" width="692" height="60" href="img/22.png"/>
<image preserveAspectRatio="none" x="1323" y="712" width="109" height="82" href="img/23.png"/>
<image preserveAspectRatio="none" x="1365" y="746" width="27" height="36" href="img/24.png"/>
</g>
<path fill-rule="evenodd" d="M1314.3 784.9H1423V702.5H1314.3v82.4Z" class="g1_54"/>
<g clip-path="url(#c0_54)">
<image preserveAspectRatio="none" x="1355" y="736" width="28" height="37" href="img/25.png"/>
<image preserveAspectRatio="none" x="327" y="713" width="966" height="79" href="img/26.png"/>
<image preserveAspectRatio="none" x="490" y="742" width="643" height="59" href="img/27.png"/>
</g>
<path fill-rule="evenodd" d="M317.7 783.2h966V704h-966v79.2Z" class="g1_54"/>
<g clip-path="url(#c0_54)">
<image preserveAspectRatio="none" x="480" y="732" width="644" height="60" href="img/28.png"/>
<image preserveAspectRatio="none" x="1327" y="611" width="108" height="82" href="img/29.png"/>
<image preserveAspectRatio="none" x="1366" y="647" width="32" height="43" href="img/30.png"/>
</g>
<path fill-rule="evenodd" d="M1317.6 684h108.5V601.7H1317.6V684Z" class="g2_54"/>
<g clip-path="url(#c0_54)">
<image preserveAspectRatio="none" x="1357" y="638" width="32" height="43" href="img/31.png"/>
<image preserveAspectRatio="none" x="33" y="226" width="420" height="139" href="img/32.png"/>
<image preserveAspectRatio="none" x="84" y="246" width="319" height="109" href="img/33.png"/>
</g>
<path fill-rule="evenodd" d="M24.2 355.9H443.5V217.1H24.2V355.9Z" class="g0_54"/>
<g clip-path="url(#c0_54)">
<image preserveAspectRatio="none" x="74" y="236" width="320" height="110" href="img/34.png"/>
<image preserveAspectRatio="none" x="537" y="184" width="411" height="83" href="img/35.png"/>
<image preserveAspectRatio="none" x="571" y="208" width="344" height="49" href="img/36.png"/>
</g>
<path fill-rule="evenodd" d="M528.2 257.6H938.5V175.3H528.2v82.3Z" class="g0_54"/>
<image clip-path="url(#c0_54)" preserveAspectRatio="none" x="562" y="198" width="344" height="50" href="img/37.png"/>
</svg>