<svg viewBox="0 0 1466 825" version="1.1" xmlns="http://www.w3.org/2000/svg">
<defs>
<clipPath id="c0_52"><path d="M-.2 825.3V-.2H1467V825.3Z"/></clipPath>
<style>
.g0_52{fill:#E2D9BD;}
.g1_52{fill:#4472C4;}
.g2_52{fill:#CFD5EA;}
.g3_52{fill:none;stroke:#FFF;stroke-width:1.527;stroke-linejoin:round;}
.g4_52{fill:none;stroke:#FFF;stroke-width:4.583;stroke-linejoin:round;}
.g5_52{fill:#C7B1F2;}
.g6_52{fill:#C00000;}
</style>
</defs>
<g clip-path="url(#c0_52)">
<image preserveAspectRatio="none" x="0" y="0" width="1467" height="825" href="img/1.png"/>
<image preserveAspectRatio="none" x="1017" y="199" width="359" height="72" href="img/2.png"/>
<image preserveAspectRatio="none" x="1040" y="224" width="314" height="45" href="img/3.png"/>
</g>
<path fill-rule="evenodd" d="M1008 262.4h358.7V190.3H1008v72.1Z" class="g0_52"/>
<image clip-path="url(#c0_52)" preserveAspectRatio="none" x="1030" y="216" width="315" height="44" href="img/4.png"/>
<path fill-rule="evenodd" d="M109.6 268.6H272.2V211.3H109.6v57.3Z" class="g1_52"/>
<path fill-rule="evenodd" d="M272.2 268.6H478.6V211.3H272.2v57.3Z" class="g1_52"/>
<path fill-rule="evenodd" d="M478.6 268.6H613.5V211.3H478.6v57.3Z" class="g1_52"/>
<path fill-rule="evenodd" d="M613.5 268.6H922.7V211.3H613.5v57.3Z" class="g1_52"/>
<path fill-rule="evenodd" d="M109.6 363.3H272.2V268.6H109.6v94.7Z" class="g2_52"/>
<path fill-rule="evenodd" d="M272.2 363.3H478.6V268.6H272.2v94.7Z" class="g2_52"/>
<path fill-rule="evenodd" d="M478.6 363.3H613.5V268.6H478.6v94.7Z" class="g2_52"/>
<path fill-rule="evenodd" d="M613.5 363.3H922.7V268.6H613.5v94.7Z" class="g2_52"/>
<path d="M272.2 210.6V364M478.6 210.6V364M613.5 210.6V364" class="g3_52"/>
<path d="M108.8 268.6H923.4" class="g4_52"/>
<path d="M109.6 210.6V364M922.7 210.6V364M108.8 211.3H923.4m-814.6 152H923.4" class="g3_52"/>
<g clip-path="url(#c0_52)">
<image preserveAspectRatio="none" x="983" y="300" width="427" height="72" href="img/5.png"/>
<image preserveAspectRatio="none" x="1005" y="318" width="383" height="45" href="img/6.png"/>
</g>
<path fill-rule="evenodd" d="M973.7 362.8h427.2V290.6H973.7v72.2Z" class="g0_52"/>
<g clip-path="url(#c0_52)">
<image preserveAspectRatio="none" x="996" y="308" width="383" height="46" href="img/7.png"/>
<image preserveAspectRatio="none" x="448" y="399" width="589" height="72" href="img/8.png"/>
<image preserveAspectRatio="none" x="464" y="424" width="557" height="39" href="img/9.png"/>
</g>
<path fill-rule="evenodd" d="M438.5 461.8h589.6V389.6H438.5v72.2Z" class="g5_52"/>
<g clip-path="url(#c0_52)">
<image preserveAspectRatio="none" x="455" y="416" width="557" height="38" href="img/10.png"/>
<image preserveAspectRatio="none" x="448" y="503" width="589" height="72" href="img/11.png"/>
<image preserveAspectRatio="none" x="504" y="528" width="477" height="40" href="img/12.png"/>
</g>
<path fill-rule="evenodd" d="M438.5 565.6h589.6V493.5H438.5v72.1Z" class="g5_52"/>
<g clip-path="url(#c0_52)">
<image preserveAspectRatio="none" x="495" y="519" width="477" height="40" href="img/13.png"/>
<image preserveAspectRatio="none" x="448" y="608" width="589" height="72" href="img/14.png"/>
<image preserveAspectRatio="none" x="541" y="629" width="401" height="44" href="img/15.png"/>
</g>
<path fill-rule="evenodd" d="M438.5 670.8h589.6v-72H438.5v72Z" class="g5_52"/>
<g clip-path="url(#c0_52)">
<image preserveAspectRatio="none" x="532" y="619" width="401" height="45" href="img/16.png"/>
<image preserveAspectRatio="none" x="448" y="713" width="589" height="72" href="img/17.png"/>
<image preserveAspectRatio="none" x="492" y="734" width="499" height="45" href="img/18.png"/>
</g>
<path fill-rule="evenodd" d="M438.5 776.1h589.6V704H438.5v72.1Z" class="g5_52"/>
<g clip-path="url(#c0_52)">
<image preserveAspectRatio="none" x="483" y="725" width="499" height="45" href="img/19.png"/>
<image preserveAspectRatio="none" x="448" y="397" width="589" height="72" href="img/20.png"/>
<image preserveAspectRatio="none" x="464" y="423" width="558" height="38" href="img/21.png"/>
</g>
<path fill-rule="evenodd" d="M438.5 460.4h589.6V388.3H438.5v72.1Z" class="g6_52"/>
<g clip-path="url(#c0_52)">
<image preserveAspectRatio="none" x="454" y="414" width="559" height="38" href="img/22.png"/>
<image preserveAspectRatio="none" x="714" y="25" width="394" height="126" href="img/23.png"/>
<image preserveAspectRatio="none" x="685" y="25" width="106" height="126" href="img/24.png"/>
<image preserveAspectRatio="none" x="337" y="25" width="425" height="126" href="img/25.png"/>
<image preserveAspectRatio="none" x="322" y="25" width="92" height="126" href="img/26.png"/>
</g>
</svg>