<svg viewBox="0 0 1466 825" version="1.1" xmlns="http://www.w3.org/2000/svg">
<defs>
<clipPath id="c0_40"><path d="M-.2 825.3V-.2H1467V825.3Z"/></clipPath>
<clipPath id="c1_40"><path d="M728.2 335.6V295.9H895.9v39.7Z"/></clipPath>
<style>
.g0_40{fill:#E2D9BD;}
.g1_40{fill:#C7B1F2;}
.g2_40{fill:#C00000;}
</style>
</defs>
<g clip-path="url(#c0_40)">
<image preserveAspectRatio="none" x="0" y="0" width="1467" height="825" href="img/1.png"/>
<image preserveAspectRatio="none" x="57" y="216" width="1398" height="206" href="img/2.png"/>
<image preserveAspectRatio="none" x="200" y="241" width="1111" height="177" href="img/3.png"/>
</g>
<path fill-rule="evenodd" d="M48 412.5H1445.6V207H48V412.5Z" class="g0_40"/>
<image clip-path="url(#c0_40)" preserveAspectRatio="none" x="191" y="232" width="1111" height="177" href="img/4.png"/>
<image clip-path="url(#c1_40)" preserveAspectRatio="none" x="729" y="296" width="167" height="39" href="img/5.jpg"/>
<g clip-path="url(#c0_40)">
<image preserveAspectRatio="none" x="264" y="448" width="969" height="72" href="img/6.png"/>
<image preserveAspectRatio="none" x="352" y="466" width="794" height="52" href="img/7.png"/>
</g>
<path fill-rule="evenodd" d="M255.4 511h968.7V438.9H255.4V511Z" class="g1_40"/>
<g clip-path="url(#c0_40)">
<image preserveAspectRatio="none" x="342" y="457" width="795" height="52" href="img/8.png"/>
<image preserveAspectRatio="none" x="263" y="540" width="969" height="72" href="img/9.png"/>
<image preserveAspectRatio="none" x="398" y="565" width="701" height="46" href="img/10.png"/>
</g>
<path fill-rule="evenodd" d="M253.9 603.4h968.8V531.3H253.9v72.1Z" class="g1_40"/>
<g clip-path="url(#c0_40)">
<image preserveAspectRatio="none" x="388" y="556" width="702" height="46" href="img/11.png"/>
<image preserveAspectRatio="none" x="264" y="633" width="969" height="72" href="img/12.png"/>
<image preserveAspectRatio="none" x="560" y="659" width="380" height="41" href="img/13.png"/>
</g>
<path fill-rule="evenodd" d="M255.4 695.9h968.7v-72H255.4v72Z" class="g1_40"/>
<g clip-path="url(#c0_40)">
<image preserveAspectRatio="none" x="550" y="650" width="381" height="41" href="img/14.png"/>
<image preserveAspectRatio="none" x="263" y="725" width="969" height="73" href="img/15.png"/>
<image preserveAspectRatio="none" x="288" y="751" width="911" height="45" href="img/16.png"/>
</g>
<path fill-rule="evenodd" d="M253.9 788.5h968.8v-72H253.9v72Z" class="g1_40"/>
<g clip-path="url(#c0_40)">
<image preserveAspectRatio="none" x="278" y="742" width="912" height="45" href="img/17.png"/>
<image preserveAspectRatio="none" x="263" y="537" width="970" height="73" href="img/18.png"/>
<image preserveAspectRatio="none" x="392" y="560" width="715" height="54" href="img/19.png"/>
</g>
<path fill-rule="evenodd" d="M253.9 600.6h970.2V528.4H253.9v72.2Z" class="g2_40"/>
<image clip-path="url(#c0_40)" preserveAspectRatio="none" x="382" y="551" width="716" height="54" href="img/20.png"/>
</svg>