<svg viewBox="0 0 1466 825" version="1.1" xmlns="http://www.w3.org/2000/svg">
<defs>
<clipPath id="c0_37"><path d="M-.2 825.3V-.2H1467V825.3Z"/></clipPath>
<clipPath id="c1_37"><path d="M105.5 788.8V587.3H219.6V788.8Z"/></clipPath>
<clipPath id="c2_37"><path d="M852.9 774.4V601.7h522.4V774.4Z"/></clipPath>
<style>
.g0_37{fill:#E2D9BD;}
.g1_37{fill:#C7B1F2;}
.g2_37{fill:#C00000;}
.g3_37{fill:#F00;}
.g4_37{fill:#FFF;}
.g5_37{fill:none;stroke:#000;stroke-width:2.291;stroke-miterlimit:10;}
.g6_37{fill:none;stroke:#000;stroke-width:2.291;stroke-linejoin:round;}
</style>
</defs>
<g clip-path="url(#c0_37)">
<image preserveAspectRatio="none" x="0" y="0" width="1467" height="825" href="img/1.png"/>
<image preserveAspectRatio="none" x="179" y="293" width="1117" height="72" href="img/2.png"/>
<image preserveAspectRatio="none" x="198" y="318" width="1076" height="46" href="img/3.png"/>
</g>
<path fill-rule="evenodd" d="M169.8 356.4h1117V284.3H169.8v72.1Z" class="g0_37"/>
<g clip-path="url(#c0_37)">
<image preserveAspectRatio="none" x="189" y="309" width="1076" height="46" href="img/4.png"/>
<image preserveAspectRatio="none" x="1142" y="437" width="269" height="72" href="img/5.png"/>
<image preserveAspectRatio="none" x="1171" y="456" width="213" height="45" href="img/6.png"/>
</g>
<path fill-rule="evenodd" d="M1132.8 500h269.3V427.9H1132.8V500Z" class="g1_37"/>
<g clip-path="url(#c0_37)">
<image preserveAspectRatio="none" x="1161" y="446" width="214" height="46" href="img/7.png"/>
<image preserveAspectRatio="none" x="786" y="438" width="280" height="72" href="img/8.png"/>
<image preserveAspectRatio="none" x="809" y="464" width="234" height="38" href="img/9.png"/>
</g>
<path fill-rule="evenodd" d="M776.8 501.2h279.8v-72H776.8v72Z" class="g1_37"/>
<g clip-path="url(#c0_37)">
<image preserveAspectRatio="none" x="800" y="455" width="234" height="38" href="img/10.png"/>
<image preserveAspectRatio="none" x="430" y="438" width="280" height="72" href="img/11.png"/>
<image preserveAspectRatio="none" x="461" y="464" width="218" height="38" href="img/12.png"/>
</g>
<path fill-rule="evenodd" d="M420.9 501.2H700.5v-72H420.9v72Z" class="g1_37"/>
<g clip-path="url(#c0_37)">
<image preserveAspectRatio="none" x="451" y="455" width="220" height="38" href="img/13.png"/>
<image preserveAspectRatio="none" x="74" y="438" width="280" height="72" href="img/14.png"/>
<image preserveAspectRatio="none" x="98" y="457" width="232" height="52" href="img/15.png"/>
</g>
<path fill-rule="evenodd" d="M64.9 501.2H344.5v-72H64.9v72Z" class="g1_37"/>
<g clip-path="url(#c0_37)">
<image preserveAspectRatio="none" x="89" y="447" width="232" height="52" href="img/16.png"/>
<image preserveAspectRatio="none" x="786" y="434" width="291" height="73" href="img/17.png"/>
<image preserveAspectRatio="none" x="815" y="460" width="234" height="38" href="img/18.png"/>
</g>
<path fill-rule="evenodd" d="M776.8 497.6h291.5V425.5H776.8v72.1Z" class="g2_37"/>
<image clip-path="url(#c0_37)" preserveAspectRatio="none" x="805" y="451" width="235" height="38" href="img/19.png"/>
<image clip-path="url(#c1_37)" preserveAspectRatio="none" x="106" y="588" width="113" height="201" href="img/20.jpg"/>
<path d="M422.1 728.9h121v-4.5h-121Zm108.4 7.7l17.1-10l-17.1-10c-1.1-.6-2.5-.2-3.1 .9c-.7 1.1-.3 2.5 .8 3.1l13.7 8v-3.9l-13.7 8c-1.1 .6-1.5 2-.8 3.1c.6 1.1 2 1.5 3.1 .8Z" class="g3_37"/>
<path fill-rule="evenodd" d="M468.1 697.7l9.4-16.3l9.3 16.3Z" class="g4_37"/>
<path d="M468.1 697.7l9.4-16.3l9.3 16.3Z" class="g5_37"/>
<path fill-rule="evenodd" d="M652.1 660.3l56.8 32.8v60.7l-56.8 32.8l-56.7-32.8V693.1Z" class="g4_37"/>
<path d="M652.1 660.3l56.8 32.8v60.7l-56.8 32.8l-56.7-32.8V693.1Z" class="g5_37"/>
<path fill-rule="evenodd" d="M631.1 721.1c0-11.3 9.5-20.5 21.3-20.5c11.7 0 21.3 9.2 21.3 20.5c0 11.4-9.6 20.6-21.3 20.6c-11.8 0-21.3-9.2-21.3-20.6Z" class="g4_37"/>
<path d="M631.1 721.1c0-11.3 9.5-20.5 21.3-20.5c11.7 0 21.3 9.2 21.3 20.5c0 11.4-9.6 20.6-21.3 20.6c-11.8 0-21.3-9.2-21.3-20.6Z" class="g6_37"/>
<image x="853" y="602" width="522" height="173" href="shade/1.png"/>
<image clip-path="url(#c2_37)" preserveAspectRatio="none" x="853" y="602" width="522" height="172" href="img/21.png"/>
<g clip-path="url(#c0_37)">
<image preserveAspectRatio="none" x="515" y="186" width="411" height="83" href="img/22.png"/>
<image preserveAspectRatio="none" x="549" y="210" width="344" height="50" href="img/23.png"/>
</g>
<path fill-rule="evenodd" d="M506.4 259.8H916.7V177.5H506.4v82.3Z" class="g0_37"/>
<g clip-path="url(#c0_37)">
<image preserveAspectRatio="none" x="540" y="200" width="344" height="51" href="img/24.png"/>
<image preserveAspectRatio="none" x="714" y="25" width="394" height="126" href="img/25.png"/>
<image preserveAspectRatio="none" x="685" y="25" width="106" height="126" href="img/26.png"/>
<image preserveAspectRatio="none" x="337" y="25" width="425" height="126" href="img/27.png"/>
<image preserveAspectRatio="none" x="322" y="25" width="92" height="126" href="img/28.png"/>
</g>
</svg>