<svg viewBox="0 0 1466 825" version="1.1" xmlns="http://www.w3.org/2000/svg">
<defs>
<clipPath id="c0_11"><path d="M-.2 825.3V-.2H1467V825.3Z"/></clipPath>
<clipPath id="c1_11"><path d="M76.5 755.5V389.1H626V755.5Z"/></clipPath>
<style>
.g0_11{fill:#E2D9BD;}
.g1_11{fill:#C7B1F2;}
.g2_11{fill:#C00000;}
</style>
</defs>
<g clip-path="url(#c0_11)">
<image preserveAspectRatio="none" x="0" y="0" width="1467" height="825" href="img/1.png"/>
<image preserveAspectRatio="none" x="153" y="207" width="1196" height="139" href="img/2.png"/>
<image preserveAspectRatio="none" x="174" y="233" width="1154" height="110" href="img/3.png"/>
</g>
<path fill-rule="evenodd" d="M144.3 337H1339.4V198.2H144.3V337Z" class="g0_11"/>
<image clip-path="url(#c0_11)" preserveAspectRatio="none" x="164" y="223" width="1155" height="111" href="img/4.png"/>
<image clip-path="url(#c1_11)" preserveAspectRatio="none" x="77" y="389" width="549" height="366" href="img/5.png"/>
<g clip-path="url(#c0_11)">
<image preserveAspectRatio="none" x="689" y="395" width="651" height="73" href="img/6.png"/>
<image preserveAspectRatio="none" x="802" y="421" width="526" height="38" href="img/7.png"/>
</g>
<path fill-rule="evenodd" d="M680.2 458.5h650.3v-72H680.2v72Z" class="g1_11"/>
<g clip-path="url(#c0_11)">
<image preserveAspectRatio="none" x="792" y="412" width="527" height="38" href="img/8.png"/>
<image preserveAspectRatio="none" x="689" y="494" width="650" height="72" href="img/9.png"/>
<image preserveAspectRatio="none" x="756" y="519" width="571" height="39" href="img/10.png"/>
</g>
<path fill-rule="evenodd" d="M679.6 556.8h650.3V484.6H679.6v72.2Z" class="g1_11"/>
<g clip-path="url(#c0_11)">
<image preserveAspectRatio="none" x="747" y="510" width="571" height="38" href="img/11.png"/>
<image preserveAspectRatio="none" x="689" y="592" width="651" height="72" href="img/12.png"/>
<image preserveAspectRatio="none" x="733" y="617" width="595" height="39" href="img/13.png"/>
</g>
<path fill-rule="evenodd" d="M680.2 654.9h650.3V582.8H680.2v72.1Z" class="g1_11"/>
<g clip-path="url(#c0_11)">
<image preserveAspectRatio="none" x="723" y="608" width="596" height="39" href="img/14.png"/>
<image preserveAspectRatio="none" x="689" y="690" width="651" height="72" href="img/15.png"/>
<image preserveAspectRatio="none" x="816" y="715" width="512" height="39" href="img/16.png"/>
</g>
<path fill-rule="evenodd" d="M679.6 753.1h650.8v-72H679.6v72Z" class="g1_11"/>
<g clip-path="url(#c0_11)">
<image preserveAspectRatio="none" x="806" y="706" width="513" height="39" href="img/17.png"/>
<image preserveAspectRatio="none" x="689" y="494" width="650" height="72" href="img/18.png"/>
<image preserveAspectRatio="none" x="747" y="519" width="580" height="38" href="img/19.png"/>
</g>
<path fill-rule="evenodd" d="M679.6 556.8h650.3V484.6H679.6v72.2Z" class="g2_11"/>
<g clip-path="url(#c0_11)">
<image preserveAspectRatio="none" x="737" y="510" width="581" height="38" href="img/20.png"/>
<image preserveAspectRatio="none" x="762" y="33" width="346" height="127" href="img/21.png"/>
<image preserveAspectRatio="none" x="733" y="33" width="105" height="127" href="img/22.png"/>
<image preserveAspectRatio="none" x="374" y="33" width="436" height="127" href="img/23.png"/>
<image preserveAspectRatio="none" x="358" y="33" width="92" height="127" href="img/24.png"/>
</g>
</svg>