<svg viewBox="0 0 1466 825" version="1.1" xmlns="http://www.w3.org/2000/svg">
<defs>
<clipPath id="c0_54"><path d="M-.2 825.3V-.2H1467V825.3Z"/></clipPath>
<style>
.g0_54{fill:#E2D9BD;}
.g1_54{fill:#C7B1F2;}
.g2_54{fill:#C00000;}
</style>
</defs>
<g clip-path="url(#c0_54)">
<image preserveAspectRatio="none" x="0" y="0" width="1467" height="825" href="img/1.png"/>
<image preserveAspectRatio="none" x="501" y="212" width="403" height="137" href="img/2.png"/>
<image preserveAspectRatio="none" x="558" y="237" width="289" height="106" href="img/3.png"/>
</g>
<path fill-rule="evenodd" d="M491.5 339.5H894.7V203.3H491.5V339.5Z" class="g0_54"/>
<g clip-path="url(#c0_54)">
<image preserveAspectRatio="none" x="549" y="228" width="289" height="107" href="img/4.png"/>
<image preserveAspectRatio="none" x="802" y="408" width="450" height="72" href="img/5.png"/>
<image preserveAspectRatio="none" x="872" y="433" width="311" height="39" href="img/6.png"/>
</g>
<path fill-rule="evenodd" d="M792.9 470.8h449.5V398.6H792.9v72.2Z" class="g1_54"/>
<g clip-path="url(#c0_54)">
<image preserveAspectRatio="none" x="862" y="424" width="312" height="38" href="img/7.png"/>
<image preserveAspectRatio="none" x="159" y="408" width="461" height="72" href="img/8.png"/>
<image preserveAspectRatio="none" x="224" y="433" width="330" height="45" href="img/9.png"/>
</g>
<path fill-rule="evenodd" d="M149.8 470.8H610.5V398.6H149.8v72.2Z" class="g1_54"/>
<g clip-path="url(#c0_54)">
<image preserveAspectRatio="none" x="215" y="424" width="331" height="45" href="img/10.png"/>
<image preserveAspectRatio="none" x="802" y="545" width="461" height="72" href="img/11.png"/>
<image preserveAspectRatio="none" x="831" y="571" width="403" height="38" href="img/12.png"/>
</g>
<path fill-rule="evenodd" d="M792.9 608.3h460.7v-72H792.9v72Z" class="g1_54"/>
<g clip-path="url(#c0_54)">
<image preserveAspectRatio="none" x="821" y="562" width="404" height="38" href="img/13.png"/>
<image preserveAspectRatio="none" x="159" y="539" width="461" height="72" href="img/14.png"/>
<image preserveAspectRatio="none" x="185" y="565" width="409" height="38" href="img/15.png"/>
</g>
<path fill-rule="evenodd" d="M149.8 601.9H610.5V529.8H149.8v72.1Z" class="g1_54"/>
<g clip-path="url(#c0_54)">
<image preserveAspectRatio="none" x="176" y="556" width="409" height="38" href="img/16.png"/>
<image preserveAspectRatio="none" x="802" y="408" width="450" height="72" href="img/17.png"/>
<image preserveAspectRatio="none" x="872" y="433" width="311" height="39" href="img/18.png"/>
</g>
<path fill-rule="evenodd" d="M792.9 470.8h449.5V398.6H792.9v72.2Z" class="g2_54"/>
<g clip-path="url(#c0_54)">
<image preserveAspectRatio="none" x="862" y="424" width="312" height="38" href="img/19.png"/>
<image preserveAspectRatio="none" x="714" y="25" width="394" height="126" href="img/20.png"/>
<image preserveAspectRatio="none" x="685" y="25" width="106" height="126" href="img/21.png"/>
<image preserveAspectRatio="none" x="337" y="25" width="425" height="126" href="img/22.png"/>
<image preserveAspectRatio="none" x="322" y="25" width="92" height="126" href="img/23.png"/>
</g>
</svg>