<svg viewBox="0 0 1466 825" version="1.1" xmlns="http://www.w3.org/2000/svg">
<defs>
<clipPath id="c0_34"><path d="M-.2 825.3V-.2H1467V825.3Z"/></clipPath>
<style>
.g0_34{fill:#E2D9BD;}
.g1_34{fill:#C7B1F2;}
.g2_34{fill:#C00000;}
</style>
</defs>
<g clip-path="url(#c0_34)">
<image preserveAspectRatio="none" x="0" y="0" width="1467" height="825" href="img/1.png"/>
<image preserveAspectRatio="none" x="108" y="281" width="1269" height="211" href="img/2.png"/>
<image preserveAspectRatio="none" x="140" y="300" width="1205" height="177" href="img/3.png"/>
</g>
<path fill-rule="evenodd" d="M99 483.1H1367.7v-211H99v211Z" class="g0_34"/>
<g clip-path="url(#c0_34)">
<image preserveAspectRatio="none" x="130" y="290" width="1206" height="178" href="img/4.png"/>
<image preserveAspectRatio="none" x="881" y="536" width="496" height="82" href="img/5.png"/>
<image preserveAspectRatio="none" x="936" y="557" width="375" height="56" href="img/6.png"/>
</g>
<path fill-rule="evenodd" d="M872.3 609h495.4V526.7H872.3V609Z" class="g1_34"/>
<g clip-path="url(#c0_34)">
<image preserveAspectRatio="none" x="926" y="547" width="377" height="57" href="img/7.png"/>
<image preserveAspectRatio="none" x="108" y="532" width="495" height="83" href="img/8.png"/>
<image preserveAspectRatio="none" x="187" y="562" width="337" height="44" href="img/9.png"/>
</g>
<path fill-rule="evenodd" d="M99 605.7H594.4V523.4H99v82.3Z" class="g1_34"/>
<g clip-path="url(#c0_34)">
<image preserveAspectRatio="none" x="178" y="553" width="337" height="44" href="img/10.png"/>
<image preserveAspectRatio="none" x="881" y="657" width="496" height="82" href="img/11.png"/>
<image preserveAspectRatio="none" x="940" y="686" width="376" height="46" href="img/12.png"/>
</g>
<path fill-rule="evenodd" d="M872.3 729.9h495.4V647.5H872.3v82.4Z" class="g1_34"/>
<g clip-path="url(#c0_34)">
<image preserveAspectRatio="none" x="930" y="677" width="377" height="46" href="img/13.png"/>
<image preserveAspectRatio="none" x="108" y="656" width="495" height="82" href="img/14.png"/>
<image preserveAspectRatio="none" x="141" y="677" width="430" height="60" href="img/15.png"/>
</g>
<path fill-rule="evenodd" d="M99 729.1H594.4V646.8H99v82.3Z" class="g1_34"/>
<g clip-path="url(#c0_34)">
<image preserveAspectRatio="none" x="131" y="667" width="431" height="61" href="img/16.png"/>
<image preserveAspectRatio="none" x="108" y="653" width="495" height="83" href="img/17.png"/>
<image preserveAspectRatio="none" x="141" y="674" width="430" height="60" href="img/18.png"/>
</g>
<path fill-rule="evenodd" d="M99 726.6H594.4V644.4H99v82.2Z" class="g2_34"/>
<g clip-path="url(#c0_34)">
<image preserveAspectRatio="none" x="131" y="665" width="431" height="60" href="img/19.png"/>
<image preserveAspectRatio="none" x="537" y="184" width="411" height="83" href="img/20.png"/>
<image preserveAspectRatio="none" x="571" y="208" width="344" height="49" href="img/21.png"/>
</g>
<path fill-rule="evenodd" d="M528.2 257.6H938.5V175.3H528.2v82.3Z" class="g0_34"/>
<image clip-path="url(#c0_34)" preserveAspectRatio="none" x="562" y="198" width="344" height="51" href="img/22.png"/>
</svg>